<svg id="Layer_1" data-name="Layer 1" xmlns="http://www.w3.org/2000/svg" width="1346.99" height="141.43" viewBox="0 0 1346.99 141.43"><defs><style>.cls-1{fill:#fff7ed;}</style></defs><path class="cls-1" d="M173.77,23.33a37.46,37.46,0,0,1-12.83,5.38,78.69,78.69,0,0,1-16,1.41,129.22,129.22,0,0,1-16.15-1q-7.86-1-15.57-2.32T98.17,24.49a109.93,109.93,0,0,0-14.65-1c-3.43,0-6.93.16-10.52.49s-6.27,1.11-8,2.32a13.13,13.13,0,0,1,2.15,4.39A18.05,18.05,0,0,1,68,35.92a11.92,11.92,0,0,1-2,6.46,6.9,6.9,0,0,1-6.29,3.14A6.53,6.53,0,0,1,54.2,43.2a9.37,9.37,0,0,1-1.82-6,15.09,15.09,0,0,1,1.82-6.87q1.83-3.56,7-6.05a33.65,33.65,0,0,1,8.2-2.65,58.12,58.12,0,0,1,8.28-1c2.59-.11,4.49-.17,5.71-.17A139.31,139.31,0,0,1,105,22.09l20,3.14a134.22,134.22,0,0,0,21.2,1.58,67.6,67.6,0,0,0,14.65-1.33,41.37,41.37,0,0,0,12-5ZM105.21,24c2,.22,3.73.44,5.22.67l4.47.66q2.23.33,5.22.66L95.27,119.22c-1.1,4.2-1.54,7.42-1.32,9.69a5.37,5.37,0,0,0,3.56,4.72q3.22,1.32,10.19,1.49l-.67,3.31q-4.31-.33-10.93-.42c-4.41,0-9-.08-13.74-.08s-9.31,0-13.67.08-7.86.2-10.51.42l.66-3.31a38.47,38.47,0,0,0,10.85-1.74,12.13,12.13,0,0,0,6.13-4.8,37,37,0,0,0,4.05-9.36Zm67.07-14.9q4.14-.16,8-.67a32.22,32.22,0,0,0,7-1.65L150.42,138.43H136ZM155.06,113.92q6.28-17.39,12-29.48A105.88,105.88,0,0,1,178.49,65q5.72-7.37,11.6-10.68A24.72,24.72,0,0,1,202.42,51q7.46,0,10.44,3.47t2.81,9.2A44,44,0,0,1,213.35,76l-16.06,48.36c-.44,1.44-.83,3-1.16,4.56a6.51,6.51,0,0,0,.25,4.05c.5,1.11,1.68,1.66,3.56,1.66q3.15,0,6.21-3.48t6.54-13.41l2.15-6.13H218l-4.14,12.09q-2.32,7-5.8,10.6a19.93,19.93,0,0,1-7.12,5.05,19.65,19.65,0,0,1-7.12,1.41q-6.63,0-9.27-3c-1.77-2-2.51-4.75-2.24-8.28a52.27,52.27,0,0,1,2.57-11.93L200.6,70.2A45.51,45.51,0,0,0,202.18,64a9.37,9.37,0,0,0-.42-5.47q-1-2.24-4.8-2.23-5.31,0-11.26,5.79T173.61,78.4a185,185,0,0,0-11.84,24.92,309.54,309.54,0,0,0-10.52,31.8Z"/><path class="cls-1" d="M240.18,100.83q9.27-3.14,16.81-6.21a50.84,50.84,0,0,0,12-6.54,35.54,35.54,0,0,0,9.44-11.59,32.3,32.3,0,0,0,3.47-14.9q0-4.81-.66-6.13a2.13,2.13,0,0,0-2-1.33q-4.14,0-8.94,3.65a47.6,47.6,0,0,0-9.44,10,94,94,0,0,0-14.74,31.79,74.89,74.89,0,0,0-2.32,18.3q0,8.44,3.15,12.18a10.32,10.32,0,0,0,8.28,3.72,26.2,26.2,0,0,0,12.59-3.64q6.62-3.65,12.91-12.92l2.65,1.33a50.73,50.73,0,0,1-8.28,10.59,44.6,44.6,0,0,1-11.51,8.37,29.5,29.5,0,0,1-13.49,3.23,24.39,24.39,0,0,1-11.6-2.65,17.78,17.78,0,0,1-7.61-7.87,28.07,28.07,0,0,1-2.65-12.83,56.19,56.19,0,0,1,2.65-16,89.8,89.8,0,0,1,7.53-17.73,85.52,85.52,0,0,1,11.68-16.31,56.81,56.81,0,0,1,15.07-11.92A36.72,36.72,0,0,1,282.91,51a13.85,13.85,0,0,1,8.69,2.73c2.38,1.82,3.56,4.55,3.56,8.2a21.49,21.49,0,0,1-3.89,12.33A43.68,43.68,0,0,1,281,84.69a89.36,89.36,0,0,1-13.82,8.36q-7.46,3.65-14.58,6.29T240,103.65Z"/><path class="cls-1" d="M345.17,21.18c2.76.11,6.3.22,10.6.33s8.61.16,12.92.16q8.12,0,15.4-.16t10.27-.17q19.54,0,29.23,7.29t9.69,18.71a24.56,24.56,0,0,1-3.07,11.6,29.94,29.94,0,0,1-9.77,10.43q-6.7,4.63-17.47,7v.33q14.56,1.32,23.1,5.88T438.25,93.3a25.39,25.39,0,0,1,3.64,13,28.71,28.71,0,0,1-5.22,17.31q-5.22,7.2-15,11t-23.51,3.81q-3.65,0-11.1-.25T369,137.93q-6.79,0-13.25.08c-4.3.06-7.84.2-10.6.42v-3.31a31,31,0,0,0,8.2-1.33,5.73,5.73,0,0,0,3.64-4,32.61,32.61,0,0,0,.92-8.95V38.73a32.4,32.4,0,0,0-.92-9,6,6,0,0,0-3.64-4,25.69,25.69,0,0,0-8.2-1.24Zm46.37,3.31c-4.52,0-7.48.94-8.86,2.81s-2.07,5.69-2.07,11.43v82.14a29.45,29.45,0,0,0,1,8.78,6,6,0,0,0,3.48,4,20.57,20.57,0,0,0,7.28,1q13.58,0,19.63-7.54t6-21.44q0-12.75-6.54-19.71t-21.61-7H374.82V76.16h14.24q8.44,0,13.08-3.73a18.47,18.47,0,0,0,6.3-9.93,51.79,51.79,0,0,0,1.65-13.33q0-12.26-4.3-18.47T391.54,24.49Z"/><path class="cls-1" d="M501.18,21.18v3.31a25.16,25.16,0,0,0-8,1.24,6.22,6.22,0,0,0-3.72,4,30.1,30.1,0,0,0-1,9v82.14a30.29,30.29,0,0,0,1,8.95,6,6,0,0,0,3.72,4,30.49,30.49,0,0,0,8,1.33v3.31c-2.76-.22-6.3-.36-10.6-.42s-8.67-.08-13.08-.08q-7.46,0-13.92.08c-4.3.06-7.84.2-10.59.42v-3.31a31,31,0,0,0,8.19-1.33,5.77,5.77,0,0,0,3.65-4,33.09,33.09,0,0,0,.91-8.95V38.73a32.87,32.87,0,0,0-.91-9,6,6,0,0,0-3.65-4A25.67,25.67,0,0,0,453,24.49V21.18c2.75.11,6.29.22,10.59.33s8.95.16,13.92.16q6.62,0,13.08-.16C494.88,21.4,498.42,21.29,501.18,21.18Z"/><path class="cls-1" d="M513.27,21.18c2.75.11,6.29.22,10.6.33s8.61.16,12.91.16q8.12,0,15.4-.16c4.86-.11,8.29-.17,10.27-.17q14.91,0,24.6,3.56t14.49,10a24.86,24.86,0,0,1,4.8,15.24,31.72,31.72,0,0,1-2.15,11.18,27.15,27.15,0,0,1-7.46,10.51q-5.29,4.82-14.49,7.87t-23.43,3.06h-15.9V79.47h14.24q10.44,0,16-3.72a18.13,18.13,0,0,0,7.45-9.94A47.38,47.38,0,0,0,582.49,52q0-13.08-5.13-20.29t-17.72-7.2q-6.79,0-8.86,2.81t-2.07,11.43v82.14a30.29,30.29,0,0,0,1,8.95,6,6,0,0,0,3.73,4,30.33,30.33,0,0,0,8,1.33v3.31q-4.14-.33-10.6-.42t-13.08-.08q-7.46,0-13.91.08c-4.31.06-7.85.2-10.6.42v-3.31a31,31,0,0,0,8.19-1.33,5.75,5.75,0,0,0,3.65-4,33.09,33.09,0,0,0,.91-8.95V38.73a32.87,32.87,0,0,0-.91-9,6,6,0,0,0-3.65-4,25.67,25.67,0,0,0-8.19-1.24ZM542.91,80q7.79.33,13,.74t8.94.75c2.49.22,4.72.5,6.71.83q13.74,1.32,20.29,6.37T600.54,104L604.35,121q1.5,6.79,3.23,9.69a5.22,5.22,0,0,0,5,2.73,6.44,6.44,0,0,0,4-1.24,17.93,17.93,0,0,0,3.31-3.4l2.32,2a28.18,28.18,0,0,1-8.78,7.54,25.47,25.47,0,0,1-11.76,2.4A23.26,23.26,0,0,1,588.29,137q-5.47-3.72-7.45-14.16l-3.15-16.56A102.35,102.35,0,0,0,574.63,94a20.7,20.7,0,0,0-4.72-8.28c-2-2-4.92-3-8.78-3H543.24Z"/><path class="cls-1" d="M674.57,21.18q31.8,0,47.11,14.82T737,78.48q0,18-7.53,31.55A51.89,51.89,0,0,1,707.69,131q-14.25,7.44-34.61,7.45c-1.66,0-3.89-.06-6.71-.17s-5.74-.19-8.78-.25-5.82-.08-8.36-.08q-6.79,0-13.25.08c-4.3.06-7.84.2-10.6.42v-3.31a31,31,0,0,0,8.2-1.33,5.73,5.73,0,0,0,3.64-4,32.69,32.69,0,0,0,.91-8.95V38.73a32.48,32.48,0,0,0-.91-9,6,6,0,0,0-3.64-4,25.69,25.69,0,0,0-8.2-1.24V21.18l10.6.41q6.46.26,12.92.08c4-.1,8.45-.22,13.41-.33S671.36,21.18,674.57,21.18Zm-1.49,3q-7.62,0-9.94,2.81T660.82,38.4v82.81q0,8.61,2.4,11.42t10,2.82q15.4,0,24.1-6.54t12.26-19.13q3.55-12.59,3.56-30.64,0-18.54-3.9-30.72T696.59,30.2Q687.82,24.16,673.08,24.16Z"/><path class="cls-1" d="M749.43,138.43v-3.31a31,31,0,0,0,8.19-1.33,5.77,5.77,0,0,0,3.65-4,33.09,33.09,0,0,0,.91-8.95V38.73a32.87,32.87,0,0,0-.91-9,6,6,0,0,0-3.65-4,25.67,25.67,0,0,0-8.19-1.24V21.18c2.75.11,6.29.22,10.59.33s9,.16,13.92.16q6.62,0,13.08-.16c4.3-.11,7.84-.22,10.6-.33v3.31a25,25,0,0,0-8,1.24,6.21,6.21,0,0,0-3.73,4,30.1,30.1,0,0,0-1,9v82.14a30.29,30.29,0,0,0,1,8.95,6,6,0,0,0,3.73,4,30.33,30.33,0,0,0,8,1.33v3.31c-2.76-.22-6.3-.36-10.6-.42s-8.67-.08-13.08-.08q-7.46,0-13.92.08C755.72,138.07,752.18,138.21,749.43,138.43Zm26.33-57.3V77.82h65.41v3.31Zm43.55,57.3v-3.31a31,31,0,0,0,8.2-1.33,5.73,5.73,0,0,0,3.64-4,32.69,32.69,0,0,0,.91-8.95V38.73a32.48,32.48,0,0,0-.91-9,6,6,0,0,0-3.64-4,25.69,25.69,0,0,0-8.2-1.24V21.18q4.47.16,11.1.33t13.25.16q7.27,0,13.66-.16c4.25-.11,7.64-.22,10.19-.33v3.31a25.11,25.11,0,0,0-8,1.24,6.22,6.22,0,0,0-3.72,4,29.7,29.7,0,0,0-1,9v82.14a29.89,29.89,0,0,0,1,8.95,6,6,0,0,0,3.72,4,30.42,30.42,0,0,0,8,1.33v3.31c-2.55-.22-5.94-.36-10.19-.42s-8.81-.08-13.66-.08q-6.63,0-13.25.08T819.31,138.43Z"/><path class="cls-1" d="M936.56,18.86q16.91,0,29.65,7.12A49.23,49.23,0,0,1,986,46.43q7,13.34,7,32.38,0,18.56-7.21,32.46a53.53,53.53,0,0,1-20,21.69q-12.82,7.78-29.39,7.79-16.89,0-29.64-7.12A49.07,49.07,0,0,1,887,113.09q-7-13.41-7-32.29,0-18.55,7.28-32.46a54.39,54.39,0,0,1,20-21.7Q920,18.85,936.56,18.86Zm-.66,3a22.83,22.83,0,0,0-17,7.45q-7.21,7.45-11.18,20.54t-4,30.3q0,17.57,4.48,30.56t12.08,20q7.62,7,16.73,7a22.88,22.88,0,0,0,17-7.46q7.2-7.44,11.18-20.61a105.12,105.12,0,0,0,4-30.23q0-17.72-4.47-30.64t-12-19.95Q945.18,21.85,935.9,21.84Z"/><path class="cls-1" d="M1109.79,21.18v3.31q-5.3.5-8,2.4a9.79,9.79,0,0,0-3.73,6,51.37,51.37,0,0,0-1,11.51V90.24a126.18,126.18,0,0,1-1.41,19.87,41.3,41.3,0,0,1-5.38,15.24,29.71,29.71,0,0,1-12.34,11.17q-8.19,4.23-20,4.23a68,68,0,0,1-15.65-1.82,31.62,31.62,0,0,1-13.5-6.79,32.71,32.71,0,0,1-8-9.78,38.23,38.23,0,0,1-3.89-13.16,145.53,145.53,0,0,1-1-18.47v-52a32.48,32.48,0,0,0-.91-9,6,6,0,0,0-3.64-4,25.79,25.79,0,0,0-8.2-1.24V21.18q4.14.16,10.6.33t13.91.16q6.8,0,13.41-.16t10.93-.33v3.31a28.07,28.07,0,0,0-8.52,1.24,6.23,6.23,0,0,0-3.9,4,30.1,30.1,0,0,0-1,9v60a94.79,94.79,0,0,0,1.08,15,36.49,36.49,0,0,0,3.64,11.51,17.21,17.21,0,0,0,7.29,7.29,25.68,25.68,0,0,0,12,2.48q12.09,0,18.72-5.46t9.27-15.24a84.76,84.76,0,0,0,2.65-22.19V45.69a50.79,50.79,0,0,0-1.16-12.42,9.93,9.93,0,0,0-4.55-6.3q-3.4-2-10-2.48V21.18c2.09.11,4.83.22,8.2.33s6.48.16,9.35.16,5.49-.05,8.2-.16S1108.14,21.29,1109.79,21.18Z"/><path class="cls-1" d="M1158.64,19.19q9.28,0,14.25,2a52.29,52.29,0,0,1,8.61,4.3c1.32.78,2.4,1.36,3.23,1.74a5.62,5.62,0,0,0,2.4.58,2.51,2.51,0,0,0,2.4-1.82,23.59,23.59,0,0,0,1.24-5.47h3.81q-.16,3.15-.41,7.29t-.33,11q-.09,6.88-.09,18.14H1190a50,50,0,0,0-3.73-16.23,33.54,33.54,0,0,0-9.11-12.84q-5.88-5-15-5.05a19.46,19.46,0,0,0-13.49,4.81q-5.39,4.8-5.39,12.91a19.15,19.15,0,0,0,3.48,11.68,40.84,40.84,0,0,0,9.85,9.11q6.38,4.38,15.16,10a178.93,178.93,0,0,1,14.57,10.51,43.26,43.26,0,0,1,10.19,11.51q3.72,6.3,3.72,15.4,0,10.77-5.3,17.89a31.52,31.52,0,0,1-14.24,10.6,53.44,53.44,0,0,1-19.54,3.48q-9.78,0-15.49-2a75.23,75.23,0,0,1-9.85-4.14c-2.43-1.54-4.31-2.32-5.63-2.32a2.51,2.51,0,0,0-2.4,1.82,23.72,23.72,0,0,0-1.24,5.47h-3.81c.22-2.54.35-5.52.41-8.94s.11-7.87.17-13.34.08-12.39.08-20.78h3.81a77.26,77.26,0,0,0,3.73,19.79,33.21,33.21,0,0,0,9.44,14.82q6.36,5.64,17,5.63a26,26,0,0,0,10.52-2.07,16.81,16.81,0,0,0,7.53-6.46,20.3,20.3,0,0,0,2.82-11.17,22.34,22.34,0,0,0-3.15-11.93,37.46,37.46,0,0,0-8.78-9.6A128.18,128.18,0,0,0,1153,86.43q-7.79-5-14.57-10.1a43.42,43.42,0,0,1-10.85-11.68,29.46,29.46,0,0,1-4-15.82q0-10.26,5-16.81a29.44,29.44,0,0,1,13-9.68A46.55,46.55,0,0,1,1158.64,19.19Z"/><path class="cls-1" d="M1300.07,21.18q-.66,6.8-.91,13.16c-.16,4.25-.25,7.48-.25,9.69s.06,4.12.17,6,.22,3.56.33,4.88h-3.81q-1.32-11.43-4.3-18t-8-9.27Q1278.21,25,1270.1,25H1261a27.08,27.08,0,0,0-7.62.82,5.26,5.26,0,0,0-3.56,3.48,26.7,26.7,0,0,0-.91,8.12V122.2a26.79,26.79,0,0,0,.91,8,5.24,5.24,0,0,0,3.56,3.56,26.65,26.65,0,0,0,7.62.83h9.44q8.44,0,14.16-3.15t9.19-10.35q3.48-7.2,5.13-19.79h3.81q-.49,5.15-.49,13.25,0,3.48.24,10.1t.92,13.75q-8.46-.33-19.05-.42t-18.88-.08h-10q-6.21,0-13.41.08l-14.58.17q-7.37.09-14,.25v-3.31a31.07,31.07,0,0,0,8.2-1.33,5.75,5.75,0,0,0,3.64-4,32.69,32.69,0,0,0,.91-8.95V38.73a32.48,32.48,0,0,0-.91-9,6,6,0,0,0-3.64-4,25.74,25.74,0,0,0-8.2-1.24V21.18q6.61.16,14,.25l14.58.16q7.2.09,13.41.08h10q7.62,0,17.31-.08T1300.07,21.18Zm-26.66,56.64v3.31h-29.48V77.82Zm4.8-21.86q-.66,9.43-.58,14.4c.06,3.32.09,6.35.09,9.11s0,5.8.16,9.11.39,8.12.83,14.41h-3.81a59.09,59.09,0,0,0-2.57-10.68,17.75,17.75,0,0,0-5.46-8.12q-3.73-3.06-10.68-3.06V77.82a14.76,14.76,0,0,0,8.36-2.16,16.72,16.72,0,0,0,5.22-5.55,31.3,31.3,0,0,0,3.06-7.12,53.74,53.74,0,0,0,1.57-7Z"/></svg>