<svg xmlns="http://www.w3.org/2000/svg" viewBox="0 0 1444.1 154.19"><defs><style>.cls-1{opacity:0.9;}.cls-1,.cls-3{isolation:isolate;}.cls-2{fill:#fff7ed;}</style></defs><g id="Lorem_Ipsum_Dolor" data-name="Lorem Ipsum Dolor"><path class="cls-2" d="M39.75,135.32q-1.72,6.28.86,9.05a8.79,8.79,0,0,0,6.76,2.76q4.18,0,8.48-3.62t8.48-15.44L67,120.64h3.62l-4,12q-4.2,12.39-10.77,17a26.19,26.19,0,0,1-15.34,4.58q-7.82,0-11.91-3.34a13.75,13.75,0,0,1-4.86-9.43,34.68,34.68,0,0,1,1.52-13.92L54.8,24.59q4.58-.19,9.06-.77a37,37,0,0,0,8.1-1.9ZM88.16,53.56l-.58,3.81H28.31l1-3.81Z"/><path class="cls-2" d="M95.59,151.52H79L116.74,24.4q1.91-6.48-.47-9.53t-11.72-3l1.14-4a87.64,87.64,0,0,0,18.87-2.19A68.13,68.13,0,0,0,140,0Zm5.34-28.21q7.23-20,13.81-33.92A126.4,126.4,0,0,1,127.8,67q6.48-8.47,13.34-12.29a29,29,0,0,1,14.29-3.81q9,0,12.3,4.28t3,11A52.21,52.21,0,0,1,168,79.67l-18.48,55.65a24.55,24.55,0,0,0-1.34,8.38q.19,3.44,4.38,3.43,3.63,0,7.15-4t7.53-15.44l2.48-7h3.62l-4.77,13.91q-2.67,8-6.57,12.2a22,22,0,0,1-8.2,5.82,23.62,23.62,0,0,1-8.29,1.62q-7.62,0-10.67-3.44t-2.57-9.52a59.92,59.92,0,0,1,2.95-13.73L153.34,73a57.45,57.45,0,0,0,1.71-6.68,11.9,11.9,0,0,0-.28-6.57Q153.72,57,149.14,57q-4.75,0-10.19,4.28a60.06,60.06,0,0,0-11.15,12.3,138,138,0,0,0-11.25,19.25A255.74,255.74,0,0,0,106,117.88q-5.06,13.81-9.44,29.83Z"/><path class="cls-2" d="M198.89,108.25q10.67-3.61,19.34-7.14a58.53,58.53,0,0,0,13.82-7.53,41,41,0,0,0,10.86-13.34,37.07,37.07,0,0,0,4-17.16q0-5.52-.76-7a2.45,2.45,0,0,0-2.28-1.52q-4.77,0-10.3,4.19a55,55,0,0,0-10.86,11.53,108.54,108.54,0,0,0-17,36.59,85.87,85.87,0,0,0-2.67,21.06q0,9.72,3.62,14a11.86,11.86,0,0,0,9.53,4.29q6.86,0,14.49-4.19t14.86-14.87l3,1.53a58.63,58.63,0,0,1-9.53,12.19,51.86,51.86,0,0,1-13.24,9.63,34,34,0,0,1-15.54,3.72A28,28,0,0,1,197,151.14a20.5,20.5,0,0,1-8.77-9.06q-3-6-3.05-14.77a65,65,0,0,1,3.05-18.39,103.68,103.68,0,0,1,8.68-20.39,97.76,97.76,0,0,1,13.43-18.78A65.64,65.64,0,0,1,227.67,56a42.26,42.26,0,0,1,20.39-5.14,16,16,0,0,1,10,3.14q4.11,3.15,4.1,9.44a24.68,24.68,0,0,1-4.48,14.19,50,50,0,0,1-11.81,12A102.68,102.68,0,0,1,230,99.3q-8.56,4.19-16.77,7.24t-14.48,4.95Z"/><path class="cls-2" d="M270.55,16.58q5.15.2,13.72.38t17.15.19q9.34,0,18-.19t12.29-.19q24.78,0,37.07,8.39t12.3,21.53a25.55,25.55,0,0,1-4.39,13.63q-4.38,7-13.43,12.39t-23.16,7.53v.38q18.67,1.14,29.83,6.38T386,99.49a26.31,26.31,0,0,1,5,15.05q0,12.39-6.58,20.59t-18.87,12.29q-12.29,4.1-29.44,4.1-4.58,0-13.34-.29t-21-.28q-9,0-17.53.09c-5.72.07-10.29.22-13.72.48v-3.81a32,32,0,0,0,8.86-1.53,6.64,6.64,0,0,0,4-4.57,37.68,37.68,0,0,0,1-10.3V36.78q0-7.05-1-10.38a6.91,6.91,0,0,0-4-4.58,26.59,26.59,0,0,0-8.86-1.43ZM330,20.39q-6.86,0-9,3.24T319,36.78v94.53A36.76,36.76,0,0,0,320,141.42a6.75,6.75,0,0,0,3.72,4.57,21.41,21.41,0,0,0,8,1.14q12.19,0,17.82-8.67t5.63-24.68q0-14.67-7.15-22.68t-23.73-8H309.24V79.86h16.39q8.19,0,12.57-4.29a23,23,0,0,0,6.1-11.44A65.24,65.24,0,0,0,346,48.79q0-14.1-3.72-21.25T330,20.39Z"/><path class="cls-2" d="M463.8,16.58v3.81a27.52,27.52,0,0,0-9,1.43,6.61,6.61,0,0,0-4,4.58,40.86,40.86,0,0,0-.95,10.38v94.53a37.68,37.68,0,0,0,1.05,10.3,6.62,6.62,0,0,0,4,4.57,31.93,31.93,0,0,0,8.86,1.53v3.81c-3.56-.26-8.1-.41-13.63-.48S439.09,151,433.5,151q-9.72,0-18.3.09c-5.72.07-10.29.22-13.72.48v-3.81a32,32,0,0,0,8.86-1.53,6.64,6.64,0,0,0,4-4.57,37.68,37.68,0,0,0,1.05-10.3V36.78q0-7.05-1.05-10.38a6.91,6.91,0,0,0-4-4.58,26.59,26.59,0,0,0-8.86-1.43V16.58q5.14.2,13.72.38t18.3.19q8.38,0,16.67-.19T463.8,16.58Z"/><path class="cls-2" d="M475.62,16.58q5.14.2,13.72.38t17.15.19q9.35,0,18-.19t12.29-.19q18.69,0,30.78,3.81t18.21,11.15q6.09,7.35,6.09,18.2a34.4,34.4,0,0,1-2.76,13.44,32.22,32.22,0,0,1-9.34,12.1q-6.57,5.53-18.1,8.77T532.6,87.48H514.31V83.67H530.7q10.47,0,15.91-4.29A21.5,21.5,0,0,0,554,67.94,58.65,58.65,0,0,0,556,52q0-15.06-4.76-23.35t-16.2-8.29q-7.05,0-9.05,3.24t-2,13.15v94.53a37.75,37.75,0,0,0,1,10.3,6.63,6.63,0,0,0,4,4.57,31.86,31.86,0,0,0,8.86,1.53v3.81c-3.56-.26-8.1-.41-13.63-.48s-11.09-.09-16.68-.09q-9.72,0-18.29.09c-5.72.07-10.29.22-13.72.48v-3.81a32,32,0,0,0,8.86-1.53,6.64,6.64,0,0,0,4-4.57,37.68,37.68,0,0,0,1-10.3V36.78q0-7.05-1-10.38a6.91,6.91,0,0,0-4-4.58,26.59,26.59,0,0,0-8.86-1.43Zm37.92,67.66q7.44.2,13.53.76l11,1q4.86.48,8.48.67,18.87,1.14,28.12,7.14t11.72,17.82l4,19.83q1.71,7.25,3.62,10.19a5.62,5.62,0,0,0,5.34,2.77,7.31,7.31,0,0,0,3.62-.86A12.21,12.21,0,0,0,606,141l2.67,2.48a31.24,31.24,0,0,1-12,8.29,43.51,43.51,0,0,1-15.06,2.39q-11.25,0-18.39-4.39t-9.05-16.2l-3.24-19.06a99.36,99.36,0,0,0-3-13.91A25.73,25.73,0,0,0,543.08,91q-3-3.53-8.57-3.53H513.92Z"/><path class="cls-2" d="M671.35,16.58q38.88,0,57.65,17.06t18.77,48.88q0,20.78-9.24,36.31t-26.78,24.11q-17.54,8.58-42.12,8.58c-2,0-4.7-.07-8-.19s-6.77-.22-10.39-.29-6.89-.09-9.81-.09q-9,0-17.54.09c-5.72.07-10.29.22-13.72.48v-3.81a31.93,31.93,0,0,0,8.86-1.53,6.64,6.64,0,0,0,4-4.57,37.68,37.68,0,0,0,1.05-10.3V36.78q0-7.05-1.05-10.38a6.91,6.91,0,0,0-4-4.58,26.54,26.54,0,0,0-8.86-1.43V16.58q5.15.2,13.72.48t17.15.09q6.87-.18,15.63-.38T671.35,16.58ZM672.68,20q-8.76,0-11.43,3.24T658.58,36.4v95.3q0,9.9,2.76,13.15t11.53,3.24q14.49,0,23.06-7.53t12.3-22q3.71-14.49,3.71-35.26,0-21.35-4-35.36T695.27,27Q686.59,20,672.68,20Z"/><path class="cls-2" d="M759.59,151.52v-3.81a31.93,31.93,0,0,0,8.86-1.53,6.65,6.65,0,0,0,4-4.57,38.08,38.08,0,0,0,1-10.3V36.78a37.79,37.79,0,0,0-1-10.38,6.93,6.93,0,0,0-4-4.58,26.54,26.54,0,0,0-8.86-1.43V16.58q5.14.2,13.73.38t18.29.19q8.39,0,16.68-.19t13.62-.38v3.81A27.5,27.5,0,0,0,813,21.82a6.62,6.62,0,0,0-4,4.58,41.33,41.33,0,0,0-1,10.38v94.53a37.68,37.68,0,0,0,1,10.3,6.64,6.64,0,0,0,4,4.57,32,32,0,0,0,8.86,1.53v3.81c-3.55-.26-8.09-.41-13.62-.48S797.2,151,791.61,151q-9.72,0-18.29.09C767.6,151.11,763,151.26,759.59,151.52Zm34.12-66V81.76H869v3.81Zm47.07,66v-3.81a32.09,32.09,0,0,0,8.87-1.53,6.66,6.66,0,0,0,4-4.57,38.08,38.08,0,0,0,1.05-10.3V36.78a37.79,37.79,0,0,0-1.05-10.38,6.94,6.94,0,0,0-4-4.58,26.66,26.66,0,0,0-8.87-1.43V16.58q5.54.2,14.3.38t17.53.19q9.33,0,17.44-.19t13.06-.38v3.81a27.52,27.52,0,0,0-9,1.43,6.59,6.59,0,0,0-4,4.58,40.76,40.76,0,0,0-1,10.38v94.53a37.68,37.68,0,0,0,1,10.3,6.64,6.64,0,0,0,4,4.57,32,32,0,0,0,8.87,1.53v3.81c-3.31-.26-7.66-.41-13.06-.48s-11.22-.09-17.44-.09q-8.76,0-17.53.09C849.23,151.11,844.47,151.26,840.78,151.52Z"/><path class="cls-2" d="M984.68,13.91q21,0,36.59,8.2a58.7,58.7,0,0,1,24.3,23.54q8.67,15.35,8.67,37.26,0,21.35-8.86,37.35a63.52,63.52,0,0,1-24.68,25q-15.83,9-36.22,9-20.78,0-36.49-8.2a58.27,58.27,0,0,1-24.4-23.63q-8.67-15.44-8.67-37.17,0-21.35,9.05-37.35a65.14,65.14,0,0,1,24.68-25Q964.28,13.91,984.68,13.91Zm-.77,3.43q-10.1,0-17.53,8.58T954.85,49.55q-4.11,15.06-4.1,34.88,0,20.2,4.67,35.16t12.48,23.06q7.82,8.11,17.35,8.1,10.1,0,17.63-8.57t11.53-23.73a137,137,0,0,0,4-34.78q0-20.4-4.58-35.26t-12.48-23Q993.45,17.34,983.91,17.34Z"/><path class="cls-2" d="M1189.75,16.58v3.81q-5.91,1-9,3.62t-4,8.2a97.31,97.31,0,0,0-1,15.63V96.06a146.37,146.37,0,0,1-1.62,22.49,49.37,49.37,0,0,1-6.2,17.91,34,34,0,0,1-14.67,13q-9.72,4.77-25.16,4.77a87.26,87.26,0,0,1-18.2-2,44.27,44.27,0,0,1-16.87-7.33,34.24,34.24,0,0,1-9.62-11.63A48.45,48.45,0,0,1,1079,117.5a168.78,168.78,0,0,1-1.15-20.87V36.78a37.88,37.88,0,0,0-1-10.38,6.93,6.93,0,0,0-4-4.58,26.54,26.54,0,0,0-8.86-1.43V16.58q5.14.2,13.72.38t17.92.19q9.33,0,17.91-.19t14.3-.38v3.81a32.76,32.76,0,0,0-9.82,1.43,7.17,7.17,0,0,0-4.48,4.58q-1.14,3.33-1.14,10.38v74.9a80.5,80.5,0,0,0,1.43,16.2,31.41,31.41,0,0,0,4.38,11.25,17.12,17.12,0,0,0,7.72,6.38,29.38,29.38,0,0,0,11.44,2q13.14,0,20.58-6.19t10.48-17.44a98.65,98.65,0,0,0,3-25.73V50.89a105.19,105.19,0,0,0-1.14-17.82q-1.14-6.19-5.15-9t-12.58-3.72V16.58q3.63.2,9.63.38t11.34.19q4.38,0,8.86-.19C1185.4,16.84,1187.84,16.71,1189.75,16.58Z"/><path class="cls-2" d="M1248.45,14.1q11.82,0,18.3,2.39a70.46,70.46,0,0,1,11,5.05c1.52.89,2.76,1.55,3.72,2a6.55,6.55,0,0,0,2.76.66,2.88,2.88,0,0,0,2.76-2.09,27.55,27.55,0,0,0,1.43-6.29h4.39q-.19,3.81-.48,9T1292,38.4q-.11,8.49-.1,22.4h-4.38A63.09,63.09,0,0,0,1282.76,41a43.87,43.87,0,0,0-11-15.82,24.49,24.49,0,0,0-17.06-6.29q-8.77,0-14.49,4.86t-5.71,13.82A21.35,21.35,0,0,0,1238.16,50a45.82,45.82,0,0,0,11,10.58q7.34,5.34,18.58,13.15a176.76,176.76,0,0,1,16,11.81,50,50,0,0,1,11.34,13.35q4.29,7.42,4.29,17.91,0,12.58-6.86,20.87a41.3,41.3,0,0,1-18.11,12.39,71.36,71.36,0,0,1-24.59,4.1q-12.39,0-19.72-2.29a91.86,91.86,0,0,1-12.49-4.77q-4.18-2.65-6.48-2.66a2.89,2.89,0,0,0-2.76,2.09,27.55,27.55,0,0,0-1.43,6.29h-4.38q.38-4.75.47-11.15t.19-16.48q.1-10.11.1-25.73h4.38a100.37,100.37,0,0,0,4.29,24.2,41.54,41.54,0,0,0,10.87,18.2q7.32,7,19.53,7a29.28,29.28,0,0,0,12-2.29,18.33,18.33,0,0,0,11.24-17.72,26.15,26.15,0,0,0-3.62-13.92,46.12,46.12,0,0,0-9.91-11.15A142.89,142.89,0,0,0,1237.4,93.2q-9-5.91-16.78-12a52.18,52.18,0,0,1-12.48-13.63q-4.67-7.52-4.67-18.2,0-12.2,6.29-20a36.72,36.72,0,0,1,16.68-11.53A64.76,64.76,0,0,1,1248.45,14.1Z"/><path class="cls-2" d="M1416.74,16.58q-.77,9-1,17.34t-.29,12.77c0,2.55.06,5,.19,7.44s.26,4.38.38,5.91h-4.38q-2.1-14.88-6.77-23.45t-11.43-12.1a31.89,31.89,0,0,0-15-3.53h-5.15a28.13,28.13,0,0,0-7.91.86,5.19,5.19,0,0,0-3.62,3.53,29.77,29.77,0,0,0-.86,8.38V134.36a29.92,29.92,0,0,0,.86,8.29,5.21,5.21,0,0,0,3.62,3.63,28.2,28.2,0,0,0,7.91.85h7.82a28.06,28.06,0,0,0,14.2-3.9q6.75-3.91,12.1-13.34t8-25.64h4.39q-.58,6.48-.58,16.77,0,4.58.19,13t1.15,17.54q-9.72-.39-21.92-.48T1376.9,151h-12.58q-7.62,0-16.58.09l-18.1.19q-9.15.11-17.15.29v-3.81a32,32,0,0,0,8.86-1.53,6.64,6.64,0,0,0,4-4.57,37.68,37.68,0,0,0,1.05-10.3V36.78q0-7.05-1.05-10.38a6.91,6.91,0,0,0-4-4.58,26.59,26.59,0,0,0-8.86-1.43V16.58q8.19.2,17.24.29l17.92.19q8.86.09,16.58.09h12.67q8.77,0,19.92-.09T1416.74,16.58ZM1388,81.76v3.81h-32.78V81.76Zm5.53-25.16c-.51,7.25-.74,12.77-.67,16.59s.09,7.3.09,10.48.07,6.67.19,10.48.45,9.34,1,16.58h-4.39a37.41,37.41,0,0,0-4-12.58,24.82,24.82,0,0,0-8.19-9.15,22.26,22.26,0,0,0-12.58-3.43V81.76a19.34,19.34,0,0,0,9.72-2.38,24,24,0,0,0,7.14-6.19,38.2,38.2,0,0,0,4.86-8.2,32.69,32.69,0,0,0,2.48-8.39Z"/></g></svg>