<svg xmlns="http://www.w3.org/2000/svg" viewBox="0 0 1529.15 134.63"><defs><style>.cls-1{opacity:0.9;}.cls-1,.cls-3{isolation:isolate;}.cls-2{fill:#fff7ed;}</style></defs><g id="Lorem_Ipsum_Dolor" data-name="Lorem Ipsum Dolor"><path class="cls-2" d="M155,2.56q-.73,7-1,13.45t-.27,10c0,2.92.06,5.67.18,8.23s.24,4.82.37,6.77H150a114.2,114.2,0,0,0-3.48-20.22q-2.19-7.41-7.68-10.7t-17-3.29H112V110.85q0,7.32,1.37,11a8,8,0,0,0,5.4,4.94,48.89,48.89,0,0,0,11.71,1.65v3.65q-4.77-.36-12.08-.45t-14.81-.1q-8.23,0-15.46.1t-11.62.45v-3.65a49,49,0,0,0,11.71-1.65,8,8,0,0,0,5.4-4.94q1.36-3.66,1.37-11V6.77H85.1q-11.34,0-16.92,3.29T60.4,20.76A114.33,114.33,0,0,0,56.93,41H52.72c.24-1.95.4-4.21.46-6.77s.09-5.31.09-8.23q0-3.48-.27-10T52,2.56q7.68.18,16.74.37t18.2.18h33.2q9.06,0,18.2-.18T155,2.56Z"/><path class="cls-2" d="M168,132.07v-3.65a37.84,37.84,0,0,0,9.42-1.47,6.56,6.56,0,0,0,4.3-4.39,33.33,33.33,0,0,0,1.1-9.88V22q0-6.76-1.1-10a6.86,6.86,0,0,0-4.3-4.39A31.14,31.14,0,0,0,168,6.22V2.56c2.56.12,5.92.25,10.06.37s8.6.18,13.36.18q6.39,0,12.71-.18c4.21-.12,7.71-.25,10.52-.37V6.22a31.14,31.14,0,0,0-9.42,1.37,6.86,6.86,0,0,0-4.3,4.39q-1.09,3.21-1.1,10v90.73a33.33,33.33,0,0,0,1.1,9.88,6.56,6.56,0,0,0,4.3,4.39,37.84,37.84,0,0,0,9.42,1.47v3.65c-2.81-.24-6.31-.39-10.52-.45s-8.45-.1-12.71-.1q-7.14,0-13.36.1C173.88,131.68,170.52,131.83,168,132.07Zm25.43-63.29V65.12h72.26v3.66Zm51,63.29v-3.65a38,38,0,0,0,9.42-1.47,6.6,6.6,0,0,0,4.3-4.39,33.39,33.39,0,0,0,1.09-9.88V22q0-6.76-1.09-10a6.9,6.9,0,0,0-4.3-4.39,31.25,31.25,0,0,0-9.42-1.37V2.56c2.8.12,6.34.25,10.61.37s8.47.18,12.62.18q7.13,0,13.35-.18c4.15-.12,7.5-.25,10.06-.37V6.22a31.2,31.2,0,0,0-9.42,1.37,6.9,6.9,0,0,0-4.3,4.39q-1.1,3.21-1.09,10v90.73a33.39,33.39,0,0,0,1.09,9.88,6.6,6.6,0,0,0,4.3,4.39,37.92,37.92,0,0,0,9.42,1.47v3.65q-3.84-.36-10.06-.45t-13.35-.1q-6.23,0-12.62.1T244.43,132.07Z"/><path class="cls-2" d="M397.72,2.56Q397,9,396.71,15t-.27,9.15c0,2.19.06,4.3.18,6.31s.24,3.69.36,5h-4.2a87.72,87.72,0,0,0-3.11-17.11q-2-6.3-6.86-9T368.27,6.77H353.08a33.81,33.81,0,0,0-9.42,1,6.39,6.39,0,0,0-4.3,4.21q-1.1,3.21-1.09,10v90.73a33.39,33.39,0,0,0,1.09,9.88,6.36,6.36,0,0,0,4.3,4.3,33.36,33.36,0,0,0,9.42,1h13.36q11.52,0,17.47-3.11a18.15,18.15,0,0,0,8.59-10.16q2.65-7,3.94-19.11h4.2a126.85,126.85,0,0,0-.54,13.17q0,3.48.27,10t1,13.44q-9.33-.36-21-.45t-20.86-.1H349.15q-6.31,0-13.63.1l-14.82.18q-7.5.09-14.26.27v-3.65a38,38,0,0,0,9.42-1.47,6.6,6.6,0,0,0,4.3-4.39,33.39,33.39,0,0,0,1.09-9.88V22q0-6.76-1.09-10a6.9,6.9,0,0,0-4.3-4.39,31.25,31.25,0,0,0-9.42-1.37V2.56q6.76.18,14.26.28L335.52,3q7.32.09,13.63.09h10.33q8.41,0,19.12-.09T397.72,2.56ZM366.25,65.12v3.66H332.78V65.12ZM371.56,41q-.74,10.43-.64,15.91T371,67q0,4.58.18,10.06t.92,15.92H367.9q-.73-5.85-1.74-11.44a17.41,17.41,0,0,0-4.39-9.14q-3.39-3.57-11.43-3.57V65.12q6,0,9.24-2.47a14.21,14.21,0,0,0,4.66-6.31,34.81,34.81,0,0,0,2-8c.37-2.74.73-5.21,1.1-7.4Z"/><path class="cls-2" d="M463.39,2.56c2.56.12,5.91.25,10.06.37s8.23.18,12.25.18q8.6,0,16.47-.18c5.24-.12,9-.19,11.15-.19q19.21,0,28.91,8a25.67,25.67,0,0,1,9.69,20.67A31.2,31.2,0,0,1,549.27,44a29.94,29.94,0,0,1-8.78,11.16q-6.13,5-16.37,8.14v.37q14.45,1.83,22.59,6.86t11.43,11.8a32.14,32.14,0,0,1,3.29,14.27A32.72,32.72,0,0,1,556.22,115a35.2,35.2,0,0,1-15.09,12.53q-9.89,4.58-23.6,4.57-4,0-12.07-.27t-19.39-.28q-6.4,0-12.62.1t-10.06.45v-3.65A37.82,37.82,0,0,0,472.8,127a6.56,6.56,0,0,0,4.3-4.39,33,33,0,0,0,1.1-9.88V22c0-4.51-.36-7.83-1.1-10a6.86,6.86,0,0,0-4.3-4.39,31.12,31.12,0,0,0-9.41-1.37Zm45.36,3.66q-8.42,0-11,3.11T495.21,22v90.73a32.56,32.56,0,0,0,1.1,9.7,6.6,6.6,0,0,0,4,4.39,25.74,25.74,0,0,0,8.59,1.1q17.93,0,26.07-8.33t8.14-23.69q0-14.09-7.59-21.76t-25-7.69H491.74V63.29h15.73q10.78,0,16.65-4.11a20.92,20.92,0,0,0,8-11,48.12,48.12,0,0,0,2.19-14.72q0-13.54-5.94-20.4T508.75,6.22Z"/><path class="cls-2" d="M622.71,2.56V6.22a31.2,31.2,0,0,0-9.42,1.37A6.88,6.88,0,0,0,609,12q-1.1,3.21-1.09,10v90.73a33.39,33.39,0,0,0,1.09,9.88,6.58,6.58,0,0,0,4.3,4.39,37.92,37.92,0,0,0,9.42,1.47v3.65q-4.2-.36-10.52-.45t-12.71-.1q-7.14,0-13.35.1t-10.06.45v-3.65a38,38,0,0,0,9.42-1.47,6.6,6.6,0,0,0,4.3-4.39,33.39,33.39,0,0,0,1.09-9.88V22q0-6.76-1.09-10a6.9,6.9,0,0,0-4.3-4.39,31.25,31.25,0,0,0-9.42-1.37V2.56c2.56.12,5.91.25,10.06.37s8.59.18,13.35.18q6.4,0,12.71-.18C616.4,2.81,619.91,2.68,622.71,2.56Z"/><path class="cls-2" d="M638.08,2.56c2.56.12,5.91.25,10.06.37s8.23.18,12.25.18q8.6,0,16.47-.18c5.24-.12,9-.19,11.16-.19q14.81,0,24.6,4.21t14.63,11.43a28.45,28.45,0,0,1,4.85,16.19,35.3,35.3,0,0,1-2.19,11.71A32,32,0,0,1,722.31,58q-5.38,5.49-14.72,9.05T684,70.61H666.43V67h15.73q13,0,19.85-4.11a21,21,0,0,0,9.33-11,44.71,44.71,0,0,0,2.47-15.27q0-14.46-6.86-22.41t-23.51-8q-8.41,0-11,3.11T669.91,22v90.73a33.39,33.39,0,0,0,1.09,9.88,6.6,6.6,0,0,0,4.3,4.39,37.92,37.92,0,0,0,9.42,1.47v3.65c-2.8-.24-6.31-.39-10.51-.45s-8.45-.1-12.72-.1c-4.75,0-9.21,0-13.35.1s-7.5.21-10.06.45v-3.65A38,38,0,0,0,647.5,127a6.6,6.6,0,0,0,4.3-4.39,33.39,33.39,0,0,0,1.09-9.88V22q0-6.76-1.09-10a6.9,6.9,0,0,0-4.3-4.39,31.25,31.25,0,0,0-9.42-1.37ZM667.16,67.5q9.89.38,15.55.82c3.78.31,6.86.58,9.24.83s4.66.55,6.86.91q12.26,2,17.65,7.41t8,16.74L729,112.87q1.83,8,3.75,11.61a6,6,0,0,0,6,3.39,8.44,8.44,0,0,0,5.21-2,33.07,33.07,0,0,0,4.48-4.93l2.75,2a35.28,35.28,0,0,1-8,8.69q-4.12,3-11.62,3a18.7,18.7,0,0,1-11.89-4q-5.11-4-7.68-15.73l-4-18.29A100.09,100.09,0,0,0,704.21,83a21.77,21.77,0,0,0-5.86-9.06q-3.75-3.29-11.07-3.29H667.53Z"/><path class="cls-2" d="M806.55,2.56q32.75,0,48.66,16.37t15.92,46.92q0,20-7.78,34.85a55.08,55.08,0,0,1-22.59,23.14q-14.82,8.24-35.85,8.23-2.74,0-7.32-.18t-9.42-.27c-3.24-.06-6.19-.1-8.87-.1q-6.4,0-12.63.1c-4.14.06-7.5.21-10.06.45v-3.65A37.84,37.84,0,0,0,766,127a6.56,6.56,0,0,0,4.3-4.39,33.33,33.33,0,0,0,1.1-9.88V22q0-6.76-1.1-10A6.86,6.86,0,0,0,766,7.59a31.14,31.14,0,0,0-9.42-1.37V2.56L766.67,3q6.23.27,12.26.09,6.41-.18,14.45-.37T806.55,2.56ZM802,5.85q-8.41,0-11,3.11t-2.56,12.63v91.46q0,9.51,2.66,12.62t11.06,3.11q19.94,0,30.92-7.22t15.36-21.13q4.39-13.91,4.39-33.84,0-20.49-4.85-33.94T832.07,12.53Q821,5.86,802,5.85Z"/><path class="cls-2" d="M887.22,132.07v-3.65a37.84,37.84,0,0,0,9.42-1.47,6.56,6.56,0,0,0,4.3-4.39,33.33,33.33,0,0,0,1.1-9.88V22q0-6.76-1.1-10a6.86,6.86,0,0,0-4.3-4.39,31.14,31.14,0,0,0-9.42-1.37V2.56c2.56.12,5.92.25,10.06.37s8.6.18,13.36.18q6.4,0,12.71-.18c4.21-.12,7.71-.25,10.52-.37V6.22a31.14,31.14,0,0,0-9.42,1.37,6.86,6.86,0,0,0-4.3,4.39q-1.1,3.21-1.1,10v90.73a33.33,33.33,0,0,0,1.1,9.88,6.56,6.56,0,0,0,4.3,4.39,37.84,37.84,0,0,0,9.42,1.47v3.65c-2.81-.24-6.31-.39-10.52-.45s-8.44-.1-12.71-.1q-7.14,0-13.36.1C893.14,131.68,889.78,131.83,887.22,132.07Zm25.43-63.29V65.12h72.26v3.66Zm51,63.29v-3.65a38,38,0,0,0,9.42-1.47,6.6,6.6,0,0,0,4.3-4.39,33.39,33.39,0,0,0,1.09-9.88V22q0-6.76-1.09-10a6.9,6.9,0,0,0-4.3-4.39,31.25,31.25,0,0,0-9.42-1.37V2.56c2.8.12,6.34.25,10.61.37s8.47.18,12.62.18q7.13,0,13.35-.18c4.15-.12,7.5-.25,10.06-.37V6.22a31.2,31.2,0,0,0-9.42,1.37,6.9,6.9,0,0,0-4.3,4.39q-1.1,3.21-1.09,10v90.73a33.39,33.39,0,0,0,1.09,9.88,6.6,6.6,0,0,0,4.3,4.39,37.92,37.92,0,0,0,9.42,1.47v3.65q-3.84-.36-10.06-.45t-13.35-.1q-6.23,0-12.62.1T963.69,132.07Z"/><path class="cls-2" d="M1084.42,0q17.37,0,30.46,7.87a52.73,52.73,0,0,1,20.3,22.59q7.23,14.73,7.23,35.76,0,20.49-7.41,35.85a57.87,57.87,0,0,1-20.58,24q-13.17,8.6-30.19,8.59-17.37,0-30.45-7.86a52.65,52.65,0,0,1-20.31-22.68q-7.23-14.82-7.22-35.67,0-20.49,7.5-35.86a58.78,58.78,0,0,1,20.58-24Q1067.4,0,1084.42,0Zm-.73,3.29A29.29,29.29,0,0,0,1063,11.52q-8.77,8.24-13.62,22.69t-4.85,33.47q0,19.39,5.4,33.75t14.63,22.14a31,31,0,0,0,20.4,7.77,29.24,29.24,0,0,0,20.67-8.23q8.77-8.23,13.62-22.77T1124.11,67q0-19.58-5.39-33.84t-14.55-22A30.84,30.84,0,0,0,1083.69,3.29Z"/><path class="cls-2" d="M1270.82,2.56V6.22q-6.22.18-9.42,1.83a8.39,8.39,0,0,0-4.3,5.3,38.28,38.28,0,0,0-1.1,10.43V78.84a133.31,133.31,0,0,1-1.64,22.32,46.9,46.9,0,0,1-5.86,16.46A33.26,33.26,0,0,1,1235.15,130a42.22,42.22,0,0,1-20.12,4.66,65.29,65.29,0,0,1-16.74-2.1,32,32,0,0,1-14-7.77A43.35,43.35,0,0,1,1176,114a41,41,0,0,1-4.11-13.9,159.34,159.34,0,0,1-1.1-20.67V22q0-6.76-1.1-10a6.88,6.88,0,0,0-4.3-4.39,31.14,31.14,0,0,0-9.42-1.37V2.56c2.56.12,5.91.25,10.06.37s8.6.18,13.36.18q6.39,0,12.71-.18c4.21-.12,7.71-.25,10.52-.37V6.22a31.14,31.14,0,0,0-9.42,1.37,6.86,6.86,0,0,0-4.3,4.39q-1.09,3.21-1.1,10V82.5a161.75,161.75,0,0,0,.91,17.65,48.6,48.6,0,0,0,3.75,14.64,21.79,21.79,0,0,0,8.69,9.88q5.87,3.56,15.55,3.56,13.9,0,21.5-6.13t10.61-16.92a90.4,90.4,0,0,0,3-24.33V23.78c0-4.51-.53-8-1.56-10.43a9.93,9.93,0,0,0-5.21-5.3,26.35,26.35,0,0,0-9.88-1.83V2.56c2.19.12,5.09.25,8.69.37s6.92.18,10,.18,6.31-.06,9.42-.18S1268.87,2.68,1270.82,2.56Z"/><path class="cls-2" d="M1322.59.55q9.14,0,13.9,2.1a50.06,50.06,0,0,1,8.41,4.67c1.47.85,2.65,1.49,3.57,1.92a6.2,6.2,0,0,0,2.65.64,2.76,2.76,0,0,0,2.65-2,26.46,26.46,0,0,0,1.38-6h4.2c-.12,2.08-.27,4.54-.45,7.41s-.31,6.65-.37,11.34-.09,10.88-.09,18.57h-4.21a52.56,52.56,0,0,0-3.84-16.83,32.46,32.46,0,0,0-9.6-13.17Q1334.48,4,1324.23,4q-9.69,0-16,5.86t-6.32,15.36a22.27,22.27,0,0,0,4.21,13.82,42.49,42.49,0,0,0,11.25,10.06q7,4.49,15.28,9.6a186.71,186.71,0,0,1,16.92,11.62,48.49,48.49,0,0,1,11.7,12.71q4.31,7,4.3,16.83,0,11.7-5.3,19.39a32.65,32.65,0,0,1-14.09,11.52,47.87,47.87,0,0,1-19.39,3.84q-9.69,0-15.36-2.19a66.2,66.2,0,0,1-9.7-4.57q-4-2.57-6.22-2.56a2.77,2.77,0,0,0-2.65,2,25.91,25.91,0,0,0-1.37,6h-4.21c.24-2.56.4-5.58.46-9s.12-8,.18-13.63S1288,98,1288,89.45h4.21a75.83,75.83,0,0,0,4.12,20.49,33.88,33.88,0,0,0,10.42,15.27q7,5.78,18.75,5.77a27.19,27.19,0,0,0,11.43-2.47,20.75,20.75,0,0,0,8.88-7.87q3.47-5.4,3.47-14a23.82,23.82,0,0,0-3.56-13.08,41.1,41.1,0,0,0-10-10.43,166,166,0,0,0-15-10q-8.61-5.3-16.1-10.79a45.42,45.42,0,0,1-12-12.71q-4.48-7.23-4.48-17.47,0-10.8,4.84-17.84a29.14,29.14,0,0,1,12.72-10.43A42.2,42.2,0,0,1,1322.59.55Z"/><path class="cls-2" d="M1473.5,2.56q-.74,6.4-1,12.44t-.27,9.15c0,2.19.06,4.3.18,6.31s.24,3.69.37,5h-4.21a87.72,87.72,0,0,0-3.11-17.11q-2-6.3-6.86-9t-14.54-2.65h-15.19a33.86,33.86,0,0,0-9.42,1,6.39,6.39,0,0,0-4.3,4.21q-1.1,3.21-1.09,10v90.73a33.39,33.39,0,0,0,1.09,9.88,6.36,6.36,0,0,0,4.3,4.3,33.41,33.41,0,0,0,9.42,1h13.36q11.52,0,17.47-3.11a18.17,18.17,0,0,0,8.6-10.16q2.64-7,3.93-19.11h4.21a123.66,123.66,0,0,0-.55,13.17q0,3.48.27,10t1,13.44q-9.33-.36-21-.45t-20.85-.1h-10.34q-6.32,0-13.63.1l-14.81.18q-7.52.09-14.27.27v-3.65a38,38,0,0,0,9.42-1.47,6.58,6.58,0,0,0,4.3-4.39,33.33,33.33,0,0,0,1.1-9.88V22q0-6.76-1.1-10a6.88,6.88,0,0,0-4.3-4.39,31.25,31.25,0,0,0-9.42-1.37V2.56q6.77.18,14.27.28L1411.3,3q7.32.09,13.63.09h10.34q8.42,0,19.11-.09T1473.5,2.56ZM1442,65.12v3.66h-33.48V65.12Zm5.3-24.14q-.73,10.43-.64,15.91t.09,10.06q0,4.58.18,10.06t.92,15.92h-4.21q-.73-5.85-1.74-11.44a17.41,17.41,0,0,0-4.39-9.14q-3.37-3.57-11.43-3.57V65.12q6,0,9.24-2.47a14.14,14.14,0,0,0,4.66-6.31,35.36,35.36,0,0,0,2-8c.36-2.74.73-5.21,1.09-7.4Z"/></g></svg>