<svg id="Layer_1" data-name="Layer 1" xmlns="http://www.w3.org/2000/svg" width="426.16" height="275.86" viewBox="0 0 426.16 275.86"><defs><style>.cls-1{fill:#fff7ed;}.cls-2{fill:none;stroke:#fff7ed;stroke-miterlimit:10;stroke-width:4px;}</style></defs><path class="cls-1" d="M220.33,52.31q3.81,0,5.63,2.31a8.83,8.83,0,0,1,1.83,5.63,11.38,11.38,0,0,1-2.24,6.88A18.78,18.78,0,0,1,220,72.18a32.42,32.42,0,0,1-10.68,4.06,75,75,0,0,1-15.48,1.4A127.34,127.34,0,0,1,180,76.9q-6.88-.75-13.5-1.74t-13.08-1.74a110.62,110.62,0,0,0-12.76-.75q-5.13,0-10.51.5c-3.59.33-6.27,1.11-8,2.32a13.13,13.13,0,0,1,2.15,4.39,18.05,18.05,0,0,1,.83,5.22,11.86,11.86,0,0,1-2,6.45,6.88,6.88,0,0,1-6.29,3.15,6.53,6.53,0,0,1-5.47-2.32,9.37,9.37,0,0,1-1.82-6,15.09,15.09,0,0,1,1.82-6.87c1.22-2.38,3.53-4.39,7-6a33.65,33.65,0,0,1,8.2-2.65,58.12,58.12,0,0,1,8.28-1c2.59-.11,4.49-.17,5.71-.17a143.55,143.55,0,0,1,18.71,1.16l17.48,2.32A137.15,137.15,0,0,0,195,74.33a76,76,0,0,0,12.83-.91,29,29,0,0,0,9.36-3.23L217,71.35a22.92,22.92,0,0,1-3.23-4.22,10.92,10.92,0,0,1,.42-11.93A6.9,6.9,0,0,1,220.33,52.31Zm-58,20.86q3,.33,5.22.66l4.47.67c1.49.22,3.23.44,5.21.66L152.43,168.4q-1.65,6.28-1.32,9.69a5.37,5.37,0,0,0,3.56,4.72c2.15.88,5.55,1.38,10.18,1.49l-.66,3.31q-4.31-.33-10.93-.42t-13.74-.08q-7.12,0-13.67.08t-10.51.42l.66-3.31a38.47,38.47,0,0,0,10.85-1.74,12,12,0,0,0,6.12-4.81A36.68,36.68,0,0,0,137,168.4Z"/><path class="cls-1" d="M270.51,70.52q15.74,0,23.44,5.8a18.34,18.34,0,0,1,7.7,15.4,24.82,24.82,0,0,1-5,15.15,44.07,44.07,0,0,1-12.75,11.43,73.89,73.89,0,0,1-16.23,7.37q15.23,2.49,21.2,9.85a26.49,26.49,0,0,1,6,17.14,27.52,27.52,0,0,1-4.31,15.49A35.3,35.3,0,0,1,279.12,179a56.27,56.27,0,0,1-15.89,6.45,74,74,0,0,1-17.72,2.16q-6.3,0-13.09-.25t-15.4-.25q-3.81,0-7.62.08l-7,.17c-2.15.06-4,.14-5.54.25l.66-3.31a38,38,0,0,0,8.78-1.33,8.81,8.81,0,0,0,5-4,33.32,33.32,0,0,0,3.32-8.95L236.4,87.91a48.88,48.88,0,0,0,1.32-8,4.85,4.85,0,0,0-2.23-4.64q-2.42-1.58-8.86-1.57l.82-3.31c1.55.11,3.37.19,5.47.25l6.87.16c2.49.06,4.94.08,7.37.08q5.79,0,11.51-.16T270.51,70.52Zm-31.46,57.63.66-2.81h12.92A32.13,32.13,0,0,0,270,120.78a31.34,31.34,0,0,0,11.26-12,33.29,33.29,0,0,0,4-15.9q0-9.76-4.22-14.49t-13.66-4.72q-7.29,0-10.27,2.23t-4.8,9.53l-22.36,84.62a36.64,36.64,0,0,0-1.41,8,4.56,4.56,0,0,0,2.07,4.38c1.43.89,4,1.33,7.78,1.33q14.58,0,23.27-4a25.88,25.88,0,0,0,12.67-11.51q4-7.53,4-18.13a25.83,25.83,0,0,0-2.49-11.84,16.94,16.94,0,0,0-7.7-7.54q-5.22-2.64-13.5-2.65Z"/><path class="cls-1" d="M103.41,174.27c0,.67-.19,1-.57,1h-.44q-22.61,0-39.2-8.78-14.33,8.79-32.69,8.78h-.43c-.38,0-.58-.33-.58-1s.2-1,.58-1h.43a20.85,20.85,0,0,0,10.33-2.85q5.08-2.83,12.43-10.48a48.68,48.68,0,0,1-12.6-15.34,37.81,37.81,0,0,1-4.47-17.54q0-11,5.82-17.9a18.85,18.85,0,0,1,15.13-6.88q8.72,0,13.52,4.3t4.81,11.9a15.27,15.27,0,0,1-5.13,11.73,18.22,18.22,0,0,1-12.84,4.72,6.38,6.38,0,0,1-4-1.19c-1-.79-1.53-1.48-1.53-2a.78.78,0,0,1,.41-.61,1.48,1.48,0,0,1,.89-.29.6.6,0,0,1,.57.25c.53,1.06,1.75,1.58,3.67,1.58,1.32,0,2.42-.76,3.3-2.3a28.75,28.75,0,0,0,2.39-8.1,6.56,6.56,0,0,1,2-3.85A5.27,5.27,0,0,1,68.85,117a6.48,6.48,0,0,1,4.25,1.52q0-6.66-4.12-10.28t-11.83-3.62a16.68,16.68,0,0,0-13.52,6.21Q38.5,117,38.5,127.05a35.72,35.72,0,0,0,4.27,16.6,47.06,47.06,0,0,0,12,14.62,131.74,131.74,0,0,1,11.39-11.42,46.53,46.53,0,0,1,12.71-8.35,33.8,33.8,0,0,1,13.3-2.68,41.45,41.45,0,0,1,4.77.23,53,53,0,0,1,5.45,1.11l.44.11c.38,0,.57.34.57,1s-.19,1-.57,1h-.44a18.27,18.27,0,0,0-8.78,2.38q-4.4,2.37-13,10.53a119.47,119.47,0,0,1-15.41,12.92q15.91,8.15,37.15,8.14h.44C103.22,173.26,103.41,173.59,103.41,174.27Z"/><path class="cls-1" d="M397.1,174.27c0,.67-.19,1-.57,1h-.44q-18.36,0-32.68-8.78-16.61,8.79-39.21,8.78h-.43c-.38,0-.58-.33-.58-1s.2-1,.58-1h.43q21.24,0,37.12-8.14A121.71,121.71,0,0,1,346,152.2q-8.58-8.16-13-10.53a18.28,18.28,0,0,0-8.79-2.38h-.43c-.38,0-.58-.33-.58-1s.2-1,.58-1.05l.43,0a46.18,46.18,0,0,1,5.35-1.15,42,42,0,0,1,4.88-.23,33.84,33.84,0,0,1,13.3,2.68,46.68,46.68,0,0,1,12.71,8.35,133.17,133.17,0,0,1,11.39,11.42,47.2,47.2,0,0,0,12-14.62,35.71,35.71,0,0,0,4.26-16.6q0-10-5.15-16.27a16.68,16.68,0,0,0-13.5-6.21q-7.69,0-11.82,3.62t-4.12,10.28a6.41,6.41,0,0,1,4.21-1.52,5.33,5.33,0,0,1,3.71,1.41,6.56,6.56,0,0,1,2,3.85c.72,3.86,1.51,6.56,2.39,8.1a3.79,3.79,0,0,0,3.29,2.3c1.92,0,3.15-.52,3.68-1.58a.58.58,0,0,1,.57-.25,1.45,1.45,0,0,1,.88.29.77.77,0,0,1,.42.61c0,.57-.51,1.26-1.53,2a6.39,6.39,0,0,1-4,1.19,18.22,18.22,0,0,1-12.83-4.72,15.27,15.27,0,0,1-5.13-11.73q0-7.6,4.81-11.9t13.51-4.3a18.87,18.87,0,0,1,15.14,6.88q5.82,6.87,5.82,17.9a37.81,37.81,0,0,1-4.47,17.54,49,49,0,0,1-12.6,15.34q7.35,7.63,12.42,10.48a20.9,20.9,0,0,0,10.33,2.85h.44C396.91,173.26,397.1,173.59,397.1,174.27Z"/><ellipse class="cls-2" cx="213.08" cy="137.93" rx="211.08" ry="135.93"/><circle class="cls-1" cx="191.45" cy="226.39" r="5.31"/><circle class="cls-1" cx="220.32" cy="226.39" r="5.31"/></svg>