<svg xmlns="http://www.w3.org/2000/svg" xmlns:xlink="http://www.w3.org/1999/xlink" viewBox="0 0 41.44 41.44"><defs><style>.cls-1{fill:none;}.cls-2{opacity:0.9;}.cls-2,.cls-4{isolation:isolate;}.cls-3{clip-path:url(#clip-path);}</style><clipPath id="clip-path"><rect class="cls-1" x="-1304.14" y="-239.37" width="810.17" height="890.09"/></clipPath></defs><g id="Lorem_Ipsum_Dolor" data-name="Lorem Ipsum Dolor"><g class="cls-3"><image width="4080" height="3072" transform="translate(-1304.14 -361.38) scale(0.33)" xlink:href="../../Photos/picks/Dining-Room.jpg"/></g><path d="M21.83,9.45l-9.27,3.66-1.5-4.95c3.79,3.47,6,1.13,8.45,0l-.09-1-5.89.67-.17-2.17c-2.69-.59-4.58.3-4.68,3.16C8.49,13.87,8.62,19,8.62,24.5H39.33L34.42,37.76a124.22,124.22,0,0,0-27.19,0L2,25.1c2.46-1,3.3-.52,3.43,1.78.4,7.62,1.37,8.5,8.86,8.53,4.73,0,9.46,0,14.19,0,6.2-.06,8.15-2.51,7-9.09-8.25,0-16.56-.11-24.87.07-2.9.06-4-.68-3.8-3.74.27-4.47-.08-9,.09-13.44.18-4.77,3.61-6.73,8-4.85,1,.43,2.18.48,3.16.95C19.55,6.05,21,7,22.42,7.88Z"/></g></svg>