<svg xmlns="http://www.w3.org/2000/svg" xmlns:xlink="http://www.w3.org/1999/xlink" width="41.44" height="41.44" viewBox="0 0 41.44 41.44"><defs><clipPath id="clip-path"><rect x="-1304.14" y="-192.49" width="810.17" height="890.09" fill="none"/></clipPath></defs><g id="Lorem_Ipsum_Dolor" data-name="Lorem Ipsum Dolor"><g clip-path="url(#clip-path)"><image width="4080" height="3072" transform="translate(-1304.14 -314.5) scale(0.33)" xlink:href="../../Photos/picks/Dining-Room.jpg"/></g></g><g id="Only_20_minutes_from_Baltimore_city_right_off_of_95._Lorem_ips" data-name="Only 20 minutes from Baltimore city, right off of 95. Lorem ips"><path d="M-.35,21.57c1.11-2.69,1.81-3.16,4.78-3.16H28.86c.11-2.64.54-3,3.13-3h6.18V11.52a3.16,3.16,0,0,1,.08-1.42A3,3,0,0,1,39.6,8.67c1.08-.36,1.59.57,2,1.38V28.53l-3,.55-.36,3.77h-.72L37.36,29H3.09l-.56,3.84H2.05l-.42-3.78-2-.54Zm40.69,1.89H1v4.22H40.34ZM1,22H38.08V19.52c-.36,0-.64-.06-.91-.06q-16.41,0-32.83,0a6.87,6.87,0,0,0-1.43.14A2.31,2.31,0,0,0,1,22Zm33.12-5.5a24.64,24.64,0,0,0-3,0c-.4.05-.75.52-1.13.79.35.36.68,1,1,1a59.44,59.44,0,0,0,6,0c.37,0,.71-.65,1.06-1-.37-.29-.71-.76-1.11-.81A22.72,22.72,0,0,0,34.14,16.5ZM40.49,22c0-3.71,0-7.37,0-11A3.41,3.41,0,0,0,40,9.83c-.22.4-.62.79-.63,1.2,0,3.38,0,6.77,0,10.16C39.27,22,39.5,22.34,40.49,22Z" fill="#4592ad"/></g></svg>