<svg xmlns="http://www.w3.org/2000/svg" width="41.44" height="41.44" viewBox="0 0 41.44 41.44"><g id="Only_20_minutes_from_Baltimore_city_right_off_of_95._Lorem_ips" data-name="Only 20 minutes from Baltimore city, right off of 95. Lorem ips"><path d="M37,16.14c-.08.8,0,1.23-.16,1.32-1.37.89-3.85,1.59-4,2.58-.35,3.09.2,6.29.37,9.45a19.1,19.1,0,0,1,0,5.23c-.14.56-2.8,1.26-3.16.87A21.47,21.47,0,0,1,27.5,31c-.12-.23-.22-.48-.36-.8H16.42c-.12.6-.19,1-.28,1.4a30.08,30.08,0,0,1-1,4c0,.15-2,0-2.13-.37a14.4,14.4,0,0,1-.35-3.78c0-3.32,0-6.64,0-10.83l-4.53,1a28.78,28.78,0,0,1,1.56,4,37.82,37.82,0,0,1,1.22,7.78c0,.81-1.75,2.11-2.86,2.31s-3.28-.47-3.44-1.15A18.36,18.36,0,0,1,3.94,27a13,13,0,0,1,3.34-6c1-1.13,3-1.39,4.87-2.15L7.67,17.46l.22-1.32Zm-5.81.68H12.58C14,19.18,14.74,21.87,15.74,22c5,.44,10.14.2,15.4.2ZM3.59,33.7c2.76-.27,5.3.14,5.88-.74.87-1.34.76-3.67.28-5.36-.17-.61-3.58-1.16-3.86-.71C4.86,28.54,4.53,30.63,3.59,33.7Zm12.78-10L16.3,25H29v-1.3ZM29.61,26.9H15.77C18.4,29.71,26.6,29.76,29.61,26.9Z" fill="#4592ad"/><path d="M13.3,13.69c-.59-5.75,1.27-7.88,6.67-8,1.94,0,3.9,0,5.84,0,4.79.15,6.66,2.39,6.38,6.82C30.9,10.93,29.67,8,27.58,7.12c-2.5-1.06-5.74-.57-8.64-.43C14.61,6.9,13.73,10.15,13.3,13.69Z" fill="#4592ad"/><path d="M28.61,14.64H16.52l0-.76H28.62Z" fill="#4592ad"/></g></svg>