<svg xmlns="http://www.w3.org/2000/svg" xmlns:xlink="http://www.w3.org/1999/xlink" viewBox="0 0 41.44 41.44"><defs><style>.cls-1{fill:none;}.cls-2{opacity:0.9;}.cls-2,.cls-4{isolation:isolate;}.cls-3{clip-path:url(#clip-path);}</style><clipPath id="clip-path"><rect class="cls-1" x="-1304.14" y="-286.44" width="810.17" height="890.09"/></clipPath></defs><g id="Lorem_Ipsum_Dolor" data-name="Lorem Ipsum Dolor"><g class="cls-3"><image width="4080" height="3072" transform="translate(-1304.14 -408.45) scale(0.33)" xlink:href="../../Photos/picks/Dining-Room.jpg"/></g><path d="M32.4,12.28l-9.31-3c2.59-1.37,9.49.16,10.44,2.47.55,1.34,1.52,3.69-1.34,3.75-7.92.15-15.84.05-23.68.05-1-4-.52-4.86,3.65-6,2.53-.71,5.15-1.1,8.29-1.74l-2.9-2.59h6.13a17.78,17.78,0,0,1-2.05,3.42A5.89,5.89,0,0,1,18.9,9.83c-3.12.78-6.26,1.44-9.4,2.15l.23,1.46H32Z"/><path d="M5,15.56c4.08.68,4.77,3,4.61,6.25C9.31,28,9.5,28,15.8,28c4.37,0,8.73-.07,13.1,0,2.39,0,3.59-.85,3.39-3.35-.08-1,.13-2,0-3-.56-3.35.59-5.52,4.07-6.35a4.39,4.39,0,0,1,.3.86c-3.27,2-2.7,5.23-2.72,8.29,0,4.07-1.09,5.15-5.18,5.18-5.37,0-10.76.21-16.11-.1-1.56-.09-3.94-1.36-4.36-2.61C7,23.22,9.58,18.57,5,15.56Z"/><path d="M7.88,35.57l3.71-.75.88-3.53,2.38,3.79,2-2.43L19,35.08l2-3.65L22.63,35l2.46-2.41,2,2.45,2.3-3.93.89,3.74,3.71.58-.06.79H8Z"/></g></svg>