<svg xmlns="http://www.w3.org/2000/svg" viewBox="0 0 41.44 41.44"><defs><style>.cls-1{opacity:0.9;}.cls-1,.cls-2{isolation:isolate;}</style></defs><g id="Lorem_Ipsum_Dolor" data-name="Lorem Ipsum Dolor"><path d="M17.47,31.33c0-2.77,0-5.53,0-8.3,0-.6-.2-.74-.76-.73q-3.5,0-7,0c-.49,0-.63.16-.61.62a9.61,9.61,0,0,1,0,1.61c0,.3-.15.75-.36.85a1.19,1.19,0,0,1-1-.14C6.69,24.53,5.65,23.76,4.6,23L-.16,19.53c-.81-.59-.84-1,0-1.59,2-1.48,4.08-3,6.12-4.43.58-.42,1.14-.89,1.75-1.27a1.65,1.65,0,0,1,1-.28c.5.09.44.6.45,1,0,.56,0,1.11,0,1.67,0,.33.12.47.47.47H17c.34,0,.48-.12.48-.47,0-1.2,0-2.4,0-3.61,0-.37-.18-.45-.5-.45a16,16,0,0,1-1.83,0,1.17,1.17,0,0,1-.8-.4,1,1,0,0,1,.12-.89Q17.23,5.39,20,1.57c.92-1.26,1.14-1.24,2.08,0q2.79,3.81,5.54,7.65a1,1,0,0,1,.12.88,1.11,1.11,0,0,1-.79.41,14,14,0,0,1-1.83,0c-.37,0-.5.14-.5.51q0,7,0,13.92c0,.38.15.5.51.49,1.35,0,2.71,0,4.06,0,.41,0,.55-.15.54-.54,0-.64,0-1.3,0-1.94A.73.73,0,0,1,31,22.4q4.1,3,8.15,5.92c.77.57.74,1-.05,1.55-2.67,1.93-5.34,3.87-8,5.78a1,1,0,0,1-.87.14,1.16,1.16,0,0,1-.4-.79,14.12,14.12,0,0,1,0-1.84c0-.33-.12-.48-.47-.47-1.39,0-2.79,0-4.18,0-.48,0-.46.27-.45.59q0,3.21,0,6.42c0,.82-.26,1.1-1.08,1.1h-5c-.85,0-1.07-.24-1.07-1.1V31.33Zm13.77,2.15.19.09,6.21-4.49-6.39-4.63c0,.55,0,.94,0,1.33,0,1-.17,1.17-1.16,1.17-2.8,0-5.61,0-8.41,0a2.41,2.41,0,0,0-2.44,1.56,5.59,5.59,0,0,0-.33,1.9c0,1.74,0,3.48,0,5.21,0,1,0,2,0,3,0,.42.1.63.58.61,1,0,2.07,0,3.1,0,.45,0,.54-.16.53-.57,0-1.07,0-2.14,0-3.21s0-2.25,0-3.38c0-.57.31-.92.8-.93,2.13,0,4.27,0,6.4,0,.64,0,.91.33.89,1C31.23,32.61,31.24,33.05,31.24,33.48ZM19,26.31a2.39,2.39,0,0,1,.54-.3c.73-.17.82-.66.81-1.32,0-2.42,0-4.85,0-7.27,0-.61.24-.87.75-.86s.71.36.72.83,0,1,0,1.49c0,2,0,4,0,5.95,0,.21.06.51.2.59a.72.72,0,0,0,1.13-.69q0-7.21,0-14.43c0-1,.17-1.2,1.19-1.2H25.7L21.06,2.69,16.53,9l.11.15h3.7c.47,0,.78.2.81.69s-.26.73-.8.77h-.51c-.89,0-.89,0-.89.91V25.63C19,25.81,19,26,19,26.31ZM7.5,23.22l.17-.09v-1c0-1.18.13-1.3,1.33-1.3,2.61,0,5.23,0,7.85,0,.46,0,.65-.13.63-.62,0-1,0-2,0-3,0-.47-.13-.62-.61-.62-2.69,0-5.39,0-8.08,0-.92,0-1.11-.19-1.12-1.1V14.07L1.26,18.7Z"/></g></svg>