<svg xmlns="http://www.w3.org/2000/svg" viewBox="0 0 41.44 41.44"><defs><style>.cls-1{opacity:0.9;}.cls-1,.cls-2{isolation:isolate;}</style></defs><g id="Lorem_Ipsum_Dolor" data-name="Lorem Ipsum Dolor"><path d="M39.42,8.25V33.54l-4,1.44-.23,1.77H31.49l-.31-2.06h-21l-.27,2.05H6.2l-.3-2.07c-.33-.05-.57-.12-.81-.13C2.19,34.39,2,34.22,2,31.32V10.64c0-3.08.3-3.38,3.31-3.38,10.24,0,20.49,0,30.74,0A12.76,12.76,0,0,1,39.42,8.25ZM27,21a11.56,11.56,0,0,0-23.11-.3C3.83,26.8,9.14,32,15.44,32.06S27,27.05,27,21Zm2.66,10.9h7.43V21.51H29.7Zm3.92-18.13h0c-1.21,0-2.44-.07-3.65,0-.37,0-.69.54-1,.82.35.29.68.82,1,.83,2.31.07,4.63.07,6.94,0,.35,0,.69-.53,1-.82-.35-.28-.67-.77-1-.81A32.79,32.79,0,0,0,33.62,13.81ZM33.49,9a32.4,32.4,0,0,0-3.27,0c-.43,0-.83.49-1.24.76.38.28.74.8,1.13.81,2.24.08,4.49.07,6.73,0,.37,0,.72-.46,1.09-.71-.39-.3-.75-.8-1.16-.85A29.85,29.85,0,0,0,33.49,9Zm-.13,4.1a33.06,33.06,0,0,0,3.45,0c.4,0,.76-.55,1.14-.84-.36-.26-.72-.71-1.08-.73q-3.45-.09-6.9,0c-.35,0-.69.49-1,.76.38.28.75.76,1.16.81A29.52,29.52,0,0,0,33.36,13.05Zm0,3.22c-1.16,0-2.32-.06-3.47,0-.35,0-.65.53-1,.81.3.25.59.71.89.72,2.38.06,4.76.07,7.14,0,.33,0,.65-.54,1-.82-.36-.25-.71-.69-1.09-.72C35.71,16.21,34.54,16.27,33.38,16.27Z"/><path d="M19,18.74a12.75,12.75,0,0,1,1.33-.3c1.19-.13,2.52-1,3.44.58s.77,4.29-.3,5.36a1.75,1.75,0,0,1-1.18.4c-1-1.43-3.25-1.92-3-4.22A7.94,7.94,0,0,0,19,18.74Z"/><path d="M17.69,24.43a15.6,15.6,0,0,1,.61,3.13,2.3,2.3,0,0,1-1.05,1.65,4.91,4.91,0,0,1-4.72,0c-1.11-.55-1.36-1.24-.31-2.23C14.1,25.21,14.07,25.17,17.69,24.43Z"/><path d="M13.26,17.32c-.13-.61-.2-1-.3-1.43-.34-1.4-.71-2.77,1.13-3.51s4.23-.37,5.1.79c.18.25.35.81.22.95a15.25,15.25,0,0,1-3.05,2.81C15.57,17.4,14.4,17.2,13.26,17.32Z"/><path d="M11.88,23.14c-1.55.07-3.16,1.69-4.58-.26-1.23-1.68-.65-4.69,1-6.06C10.83,18.49,11.53,19.68,11.88,23.14Z"/><path d="M17.74,21a2.18,2.18,0,0,1-2.38,2.21,2.12,2.12,0,0,1-2.1-2.32,2.17,2.17,0,0,1,2.2-2.24A2.26,2.26,0,0,1,17.74,21Z"/></g></svg>