<svg xmlns="http://www.w3.org/2000/svg" width="41.44" height="41.44" viewBox="0 0 41.44 41.44"><g id="Only_20_minutes_from_Baltimore_city_right_off_of_95._Lorem_ips" data-name="Only 20 minutes from Baltimore city, right off of 95. Lorem ips"><path d="M6.51,32.69a43.45,43.45,0,0,1,7.71-13.47,3.42,3.42,0,0,1,1.65-1.12c-3.52,4.95-7.06,9.84-8.06,16.13L12,30.35l.59.55-4,4.17.33.45c6.21-1.65,11.41-5.08,16.23-9.53l-1.08-1a40.27,40.27,0,0,1-5.28,2.61c-2.6.86-4.31-.94-3.53-3.57a7.56,7.56,0,0,1,2.43-4.08l.49.28c-.35.65-.73,1.29-1.05,2-.65,1.32-1.76,2.85-.58,4.12s2.78.17,4.07-.5A23.72,23.72,0,0,0,23,24.06L14,15.16c-1.76.6-3.49-.1-4.73-2.55a3.59,3.59,0,0,1,.28-3c.71-1.09,2-1.08,3.15-.31,2.44,1.63,3.06,3,2.26,5l1.94,1.8a1.91,1.91,0,0,0,.56-.27,40.23,40.23,0,0,1,15.5-8.95c.16,0,.28-.21.42-.32H36A13.22,13.22,0,0,1,35.88,10a38,38,0,0,1-7.82,14.24,3.54,3.54,0,0,1-.7.58c-.08,0-.23,0-.69-.11.37-.57.68-1,1-1.48L33,14.8c1.08-1.69,0-2.82-1.07-3.87s-2.14-2.18-3.86-1.08c-3.48,2.21-7,4.38-10.5,6.57l.29.47c0,.11,0,.26.07.35.24.34.52.68.76,1a7,7,0,0,0,.67-.29A29.36,29.36,0,0,1,24,15.35c2.47-.86,4.25,1,3.47,3.47a30.07,30.07,0,0,1-2.07,4.33l-.67-.29A6.11,6.11,0,0,1,25,21.8c.21-.44.58-.82.76-1.27.53-1.28,1.72-2.91.31-3.85-.84-.56-2.65.08-3.93.49a12.47,12.47,0,0,0-2.75,1.95c3,2.95,5.92,5.74,8.81,8.52.16.15.5.31.64.24,2.83-1.42,3.57,1.28,4.74,2.62s-.12,3.55-1.92,3.65c-2.16.12-4.69-3.38-3.89-5.41l-1.89-2.13A42.25,42.25,0,0,1,9.86,36.42H6.51Zm21.3-2.29a20.3,20.3,0,0,0,2.73,2.25c.52.29,1.33.09,2,.11a5.48,5.48,0,0,0,0-2.14,18,18,0,0,0-1.91-2.68l-.51.5ZM12.31,15l2.9-2.54a20.4,20.4,0,0,0-2.91-2.09,5.62,5.62,0,0,0-2.14-.08,5.74,5.74,0,0,0,.18,2.14A16.39,16.39,0,0,0,12.31,15Zm22.13-3.38,1-4.32L31.28,8.52Z" fill="#4592ad"/></g></svg>