<svg xmlns="http://www.w3.org/2000/svg" viewBox="0 0 41.44 41.44"><defs><style>.cls-1{opacity:0.9;}.cls-1,.cls-2{isolation:isolate;}</style></defs><g id="Lorem_Ipsum_Dolor" data-name="Lorem Ipsum Dolor"><path d="M18.69,31.33c0-2.77,0-5.53,0-8.3,0-.6-.19-.74-.75-.73q-3.5,0-7,0c-.49,0-.64.16-.61.62a9.61,9.61,0,0,1,0,1.61c0,.3-.16.75-.37.85a1.19,1.19,0,0,1-1-.14C7.91,24.53,6.86,23.76,5.81,23L1.05,19.53c-.8-.59-.83-1-.05-1.59l6.12-4.43c.59-.42,1.14-.89,1.76-1.27a1.6,1.6,0,0,1,1-.28c.5.09.45.6.46,1,0,.56,0,1.11,0,1.67,0,.33.12.47.47.47h7.4c.34,0,.48-.12.47-.47,0-1.2,0-2.4,0-3.61,0-.37-.18-.45-.5-.45a16,16,0,0,1-1.83,0,1.14,1.14,0,0,1-.79-.4,1,1,0,0,1,.12-.89q2.74-3.87,5.56-7.69c.93-1.26,1.15-1.24,2.08,0,1.86,2.54,3.72,5.09,5.54,7.65a1,1,0,0,1,.12.88,1.09,1.09,0,0,1-.78.41,14,14,0,0,1-1.83,0c-.37,0-.51.14-.5.51V25c0,.38.14.5.5.49,1.36,0,2.71,0,4.07,0,.4,0,.54-.15.53-.54,0-.64,0-1.3,0-1.94a.73.73,0,0,1,1.21-.6q4.08,3,8.15,5.92c.77.57.73,1-.06,1.55-2.67,1.93-5.34,3.87-8,5.78a1,1,0,0,1-.86.14A1.12,1.12,0,0,1,31,35a16.14,16.14,0,0,1,0-1.84c0-.33-.11-.48-.46-.47-1.4,0-2.79,0-4.19,0-.47,0-.45.27-.45.59V39.7c0,.82-.27,1.1-1.08,1.1h-5c-.85,0-1.07-.24-1.07-1.1q0-4.19,0-8.37Zm13.76,2.15.19.09,6.21-4.49-6.39-4.63v1.33c0,1-.17,1.17-1.16,1.17-2.81,0-5.61,0-8.42,0a2.42,2.42,0,0,0-2.44,1.56,5.59,5.59,0,0,0-.33,1.9c0,1.74,0,3.48.05,5.21,0,1,0,2,0,3,0,.42.11.63.59.61q1.55,0,3.09,0c.45,0,.54-.16.54-.57,0-1.07,0-2.14,0-3.21s0-2.25,0-3.38c0-.57.31-.92.8-.93,2.14,0,4.27,0,6.41,0,.64,0,.9.33.89,1C32.44,32.61,32.45,33.05,32.45,33.48ZM20.19,26.31a2.22,2.22,0,0,1,.55-.3c.72-.17.81-.66.8-1.32,0-2.42,0-4.85,0-7.27,0-.61.23-.87.74-.86s.71.36.73.83,0,1,0,1.49c0,2,0,4,0,5.95,0,.21.06.51.2.59a.72.72,0,0,0,1.14-.69V10.3c0-1,.18-1.2,1.19-1.2h1.36L22.27,2.69,17.74,9l.12.15h3.7a.71.71,0,0,1,.81.69c0,.46-.26.73-.8.77h-.52c-.89,0-.89,0-.89.91V25.63C20.16,25.81,20.18,26,20.19,26.31ZM8.71,23.22l.17-.09v-1c0-1.18.13-1.3,1.33-1.3,2.62,0,5.23,0,7.85,0,.46,0,.65-.13.64-.62,0-1,0-2,0-3,0-.47-.13-.62-.62-.62-2.69,0-5.38,0-8.07,0-.92,0-1.12-.19-1.12-1.1,0-.43,0-.85,0-1.45L2.48,18.7Z"/></g></svg>