<svg xmlns="http://www.w3.org/2000/svg" viewBox="0 0 41.44 41.44"><defs><style>.cls-1{opacity:0.9;}.cls-1,.cls-2{isolation:isolate;}</style></defs><g id="Lorem_Ipsum_Dolor" data-name="Lorem Ipsum Dolor"><path d="M32.43,38H9V3.49H32.43ZM10.3,20.69c0,4.64,0,9.28,0,13.92,0,1.48.37,2.13,2,2.11,5.59-.07,11.19-.06,16.79,0,1.47,0,2.1-.41,2.09-2q-.09-14,0-28.07c0-1.71-.66-2.15-2.22-2.14q-8.18.09-16.35,0c-1.66,0-2.35.45-2.3,2.26C10.38,11.4,10.3,16,10.3,20.69Z"/><path d="M20.56,29.1c-2.65,0-2.76-.13-2.74-3,0-2.59.17-2.72,3.05-2.71,2.65,0,2.72.1,2.71,3C23.57,29.09,23.54,29.11,20.56,29.1Zm1.75-1.27V24.72H19.1v3.13c.71,0,1.28.12,1.84.12A13,13,0,0,0,22.31,27.83Z"/><path d="M27.25,29.1c-2.84,0-2.86,0-2.86-2.82s.05-2.87,2.82-2.87,2.93.19,2.93,2.83S30,29.1,27.25,29.1Zm1.52-1.34V24.6c-.71,0-1.22,0-1.73,0s-1,.12-1.41.19C25.2,28.12,25.37,28.27,28.77,27.76Z"/><path d="M21,17.07c1.82-.38,2.81.33,2.67,2.69-.17,2.82-.12,2.91-2.82,2.92s-3-.13-3-2.76C17.82,17.11,17.85,17.07,21,17.07Zm1.77,4.42c-.32-1.31-.33-2.51-.92-3.24a2.48,2.48,0,0,0-2.39.14c-.5.78-.36,2-.52,3.18h1.93Z"/><path d="M14.25,29.1c-2.8,0-2.84,0-2.85-2.8s.06-2.88,2.78-2.89,2.83,0,2.83,2.83S17,29.09,14.25,29.1Zm-1.62-1.37c3.42.58,3.77.23,3-3h-3Z"/><path d="M23.58,32.64c0,2.83,0,2.88-2.81,2.88s-2.94-.07-2.95-2.75.06-2.86,2.83-2.86S23.57,29.92,23.58,32.64Zm-.9,1.68c-.29-1.28-.27-2.48-.85-3.21a2.48,2.48,0,0,0-2.39.09c-.51.78-.39,2-.55,3.12Z"/><path d="M14.13,30c2.29-.5,2.94.48,2.95,2.69s-.57,2.95-2.83,2.92-3-.54-2.91-2.83C11.41,30.69,11.73,29.39,14.13,30Zm1.56,4.3c.66-3.44.18-3.88-3-3v3Z"/><path d="M27.36,29.91c2.69,0,2.8.13,2.78,2.9,0,2.57-.18,2.72-3,2.71-2.66,0-2.74-.1-2.73-2.94C24.4,29.93,24.43,29.9,27.36,29.91Zm1.43,4.38V31.16c-3.52-.48-3.75-.24-3.06,3.13Z"/><path d="M14.25,17.15c2.42-.61,2.89.65,2.79,2.75-.13,2.7-.11,2.78-2.89,2.78s-2.63-.06-2.79-2.89C11.24,17.55,12,16.59,14.25,17.15ZM16,21.5c-.1-1.08.16-2.46-.39-3s-1.93-.29-2.94-.38v3.4Z"/><path d="M30.14,19.8c0,2.69-.18,2.87-2.87,2.88s-2.75-.12-2.92-2.81c-.15-2.25.63-3,2.86-2.85C30.06,17.2,30.14,17.13,30.14,19.8Zm-1.26-1.9c-1.3.26-2.5.2-3.25.76a2.56,2.56,0,0,0,0,2.39,10,10,0,0,0,3.27.61Z"/><path d="M16.22,8.9h9v.52h-9Z"/></g></svg>