<svg xmlns="http://www.w3.org/2000/svg" width="41.44" height="41.44" viewBox="0 0 41.44 41.44"><g id="Only_20_minutes_from_Baltimore_city_right_off_of_95._Lorem_ips" data-name="Only 20 minutes from Baltimore city, right off of 95. Lorem ips"><path d="M21.18,22.41l5.59.46,0,.92-5.62.31V34.91H28V30A12.64,12.64,0,0,0,26,29.85c-1.5.13-1.9-.57-1.89-2S24.7,26,26,26.11s2.37,0,3.88,0c0-2-.1-3.9.07-5.78a2,2,0,0,1,1.49-1.24c.68,0,1.94.57,2,.95.16,3.16.09,6.33.09,9.63l-3.85.3v4.86l5.66.45-.08.83H5.48c.37-.76.37-.76,5.53-1.25V30.13c-3.86-.81-3.86-.81-3.86-5.06,0-1.34,0-2.67,0-4S7.21,19,8.87,19s2,.67,1.94,2.13,0,3.1,0,5c1.33,0,2.56.07,3.77,0,1.45-.11,2,.45,2,1.91s-.45,1.93-1.8,1.83A21.25,21.25,0,0,0,12.5,30v4.87h7V24.08L14,23.83c1.51-2,3.62-.76,5.51-1.45V14.47H9c-2.71,0-3.16-.66-1.86-3.17C8.83,8,12,6.66,15.4,5.94c5.48-1.17,10.82-.84,15.5,2.6a10.32,10.32,0,0,1,2.76,3.64c.69,1.37.33,2.37-1.61,2.32-3.56-.1-7.12,0-10.87,0ZM24.47,13c.11-3.36-1.9-6.3-4.17-6.26S16,9.69,16.18,13ZM8,13.08c2,0,3.73.05,5.48,0a1.48,1.48,0,0,0,1.06-.82c.55-1.56,1-3.17,1.42-4.76A8.34,8.34,0,0,0,8,13.08ZM24.64,7.51l1.88,5.58H32.3A8,8,0,0,0,24.64,7.51ZM9.41,20.5l-.72,0v7.63H15l0-.66c-1.13,0-2.28-.09-3.4,0-1.63.15-2.3-.41-2.17-2.11S9.41,22.14,9.41,20.5Zm22.55,0-.71,0c0,1.15,0,2.31,0,3.46,0,3.9.48,3.44-3.38,3.5-.71,0-1.42.14-2.14.21l.07.55H32Z" fill="#4592ad"/></g></svg>