<svg xmlns="http://www.w3.org/2000/svg" width="41.44" height="41.44" viewBox="0 0 41.44 41.44"><g id="Only_20_minutes_from_Baltimore_city_right_off_of_95._Lorem_ips" data-name="Only 20 minutes from Baltimore city, right off of 95. Lorem ips"><path d="M7,37.12a6.9,6.9,0,0,1,.22-2.25c1.25-2.71,2.66-5.35,4-8a7,7,0,0,0,.73-2.33c.12-1.39-.28-2.79,2-2.88s2.52,1,2.5,2.69c0,.15.14.29.28.57H27.21c.06-.64-.1-1.51.24-1.84a4.41,4.41,0,0,1,2.44-1.26,2.49,2.49,0,0,1,1.81,1.33c.83,1.94,1.23,4.06,2.14,5.95,1.19,2.44,2.71,4.72,4.08,7.06.31,1.54-.86,1-1.5,1Q21.69,37.14,7,37.12Zm.67-1.73L8,35.9H36.21l.26-.63c-.81-.47-1.62-1.34-2.44-1.35q-12-.16-23.94,0C9.26,33.93,8.45,34.88,7.64,35.39Zm27-2.4A2.35,2.35,0,0,0,31.9,30.7Q22,30.79,12,30.7c-1.64,0-2.49.55-2.56,2.29Zm-1.77-3,.25-.73a6.83,6.83,0,0,0-2.18-.86q-9-.11-17.93,0a6.67,6.67,0,0,0-2.22.89L11,30Zm-1.39-2.44.3-.75a6.46,6.46,0,0,0-2.13-.89c-5.16-.07-10.31-.08-15.47,0-.73,0-1.45.67-2.18,1l.3.6Z" fill="#4592ad"/><path d="M3.47,10.69l5.74.7L9,11.84l5.41-1.78.18.64L9.5,13.27l-6-2.09Z" fill="#4592ad"/><path d="M21.78,11.49c1.12-2,.4-2.86-1.51-3.36,1.92-.48,2.59-1.4,1.73-2.74l3.71-1.15c.38.85,1.35,1.72,3.31.15-.4,1.87-1.19,3.56,1.74,3.3-1.21,1.15-3.4,1.4-1.89,3.05L25,12C24.7,10.9,23.67,10.23,21.78,11.49Zm3.65-.08c1.17-1.55,2.25-2.36,2.39-3.3a2,2,0,0,0-2.55-2.2,3.36,3.36,0,0,0-2.18,2.27C23,9,24.26,9.89,25.43,11.41Z" fill="#4592ad"/><path d="M25.48,16l5.63-1.84.19.66-5.45,2.71L20.4,14.62C22.64,13.94,24.24,15,25.48,16Z" fill="#4592ad"/><path d="M11.27,18.68,6,15.9l.18-.57L11.31,17l5.16-1.79.25.6Z" fill="#4592ad"/></g></svg>