<svg xmlns="http://www.w3.org/2000/svg" xmlns:xlink="http://www.w3.org/1999/xlink" width="41.44" height="41.44" viewBox="0 0 41.44 41.44"><defs><clipPath id="clip-path"><rect x="-1304.14" y="-334.55" width="810.17" height="890.09" fill="none"/></clipPath></defs><g id="Lorem_Ipsum_Dolor" data-name="Lorem Ipsum Dolor"><g clip-path="url(#clip-path)"><image width="4080" height="3072" transform="translate(-1304.14 -456.56) scale(0.33)"/></g></g><g id="Only_20_minutes_from_Baltimore_city_right_off_of_95._Lorem_ips" data-name="Only 20 minutes from Baltimore city, right off of 95. Lorem ips"><path d="M38.8,39.87H2.64V4C6,3.26,9.48,2.1,13,1.78c1.87-.17,3.84,1.27,5.83,1.69,1.21.26,2.82.44,3.76-.14,3.8-2.32,9.34-2.4,13,0A17.82,17.82,0,0,0,38.8,4.72ZM4,39c10.85,0,21.23.05,31.61-.13.68,0,1.87-1.79,1.9-2.78.19-5.44.1-3.27.1-8.71V12.9H4ZM17.14,11.13h4.4c.15,0,.57-4.12.89-4.57a5.51,5.51,0,0,1,2.68,0c.16,0,.54,4.57.7,4.57h4.9c.09-1.63-.19-4,.3-4.18C36.13,5.17,34,9,33.8,11.43L37.36,11V5.72H4.07v5.39H7.16A23.89,23.89,0,0,1,7.72,6.8c.09-.28,2.26-.31,2.3-.15a35.67,35.67,0,0,1,.73,4.68l2.54-.11a28,28,0,0,1,.88-4.5,3.61,3.61,0,0,1,2.32,0A27.27,27.27,0,0,1,17.14,11.13ZM8,3.22v.54H16.5l0-.54ZM25,3.26l0,.47h8.47l0-.47Z" fill="#4592ad"/><path d="M34.31,35.26H7.09c0-8.44,0-9,.1-17.21,0-.65,1.4-1.8,2.17-1.81q11.42-.19,22.86,0a2.86,2.86,0,0,1,2,2C34.37,26.31,34.31,26.79,34.31,35.26Zm-1.63-1.21V17.62H8.62V34.05Z" fill="#4592ad"/></g></svg>