<svg xmlns="http://www.w3.org/2000/svg" viewBox="0 0 41.44 41.44"><defs><style>.cls-1{opacity:0.9;}.cls-1,.cls-2{isolation:isolate;}</style></defs><g id="Lorem_Ipsum_Dolor" data-name="Lorem Ipsum Dolor"><path d="M33,17.85c-.89,1-1.64.82-2.57-.08-5.9-5.73-13.77-5.7-19.71,0-.56.54-1.14,1.3-2,.47s-.26-1.52.34-2.18a15.89,15.89,0,0,1,21.57-1.34c.82.7,1.56,1.49,2.33,2.24Z"/><path d="M20.72,16.73a9.82,9.82,0,0,1,6.63,2.33,3.55,3.55,0,0,1,1.29,1.36,5.05,5.05,0,0,1-.13,1.95c-.55-.14-1.26-.1-1.62-.44a9,9,0,0,0-4.62-2.7,8.29,8.29,0,0,0-7.85,2.66c-.35.36-1.14.29-1.72.42a7.29,7.29,0,0,1,0-2c.1-.41.6-.75,1-1.06A10.08,10.08,0,0,1,20.72,16.73Z"/><path d="M20.62,21.79a43.42,43.42,0,0,1,4.26,2.1,1.82,1.82,0,0,1,.31,1.72c-.36.82-1.1.57-1.71.09a4.3,4.3,0,0,0-5.65-.07c-.4.28-1.17,0-1.76,0,.09-.6,0-1.53.32-1.75A42.7,42.7,0,0,1,20.62,21.79Z"/><path d="M22.64,29.06c-.94.62-1.53,1.31-2,1.24a2,2,0,0,1-1.3-1.36,1.17,1.17,0,0,1,1.41-1.42C21.3,27.62,21.76,28.31,22.64,29.06Z"/></g></svg>